  0
SECTION
  2
HEADER
  9
$ACADVER
  1
AC1015
  9
$ACADMAINTVER
 70
     6
  9
$DWGCODEPAGE
  3
ANSI_1252
  9
$INSBASE
 10
0.0
 20
0.0
 30
0.0
  9
$EXTMIN
 10
-4.305835563
 20
6.0833815583
 30
0.0
  9
$EXTMAX
 10
6.4643841549
 20
32.0
 30
0.0
  9
$LIMMIN
 10
0.0
 20
0.0
  9
$LIMMAX
 10
12.0
 20
9.0
  9
$ORTHOMODE
 70
     0
  9
$REGENMODE
 70
     1
  9
$FILLMODE
 70
     1
  9
$QTEXTMODE
 70
     0
  9
$MIRRTEXT
 70
     1
  9
$LTSCALE
 40
1.0
  9
$ATTMODE
 70
     1
  9
$TEXTSIZE
 40
0.125
  9
$TRACEWID
 40
0.05
  9
$TEXTSTYLE
  7
Standard
  9
$CLAYER
  8
0
  9
$CELTYPE
  6
ByLayer
  9
$CECOLOR
 62
   256
  9
$CELTSCALE
 40
1.0
  9
$DISPSILH
 70
     0
  9
$DIMSCALE
 40
1.0
  9
$DIMASZ
 40
0.13
  9
$DIMEXO
 40
0.05
  9
$DIMDLI
 40
0.38
  9
$DIMRND
 40
0.0
  9
$DIMDLE
 40
0.0
  9
$DIMEXE
 40
0.125
  9
$DIMTP
 40
0.0
  9
$DIMTM
 40
0.0
  9
$DIMTXT
 40
0.125
  9
$DIMCEN
 40
0.09
  9
$DIMTSZ
 40
0.0
  9
$DIMTOL
 70
     0
  9
$DIMLIM
 70
     0
  9
$DIMTIH
 70
     1
  9
$DIMTOH
 70
     1
  9
$DIMSE1
 70
     0
  9
$DIMSE2
 70
     0
  9
$DIMTAD
 70
     0
  9
$DIMZIN
 70
     1
  9
$DIMBLK
  1

  9
$DIMASO
 70
     1
  9
$DIMSHO
 70
     1
  9
$DIMPOST
  1

  9
$DIMAPOST
  1

  9
$DIMALT
 70
     0
  9
$DIMALTD
 70
     2
  9
$DIMALTF
 40
25.4
  9
$DIMLFAC
 40
1.0
  9
$DIMTOFL
 70
     0
  9
$DIMTVP
 40
0.0
  9
$DIMTIX
 70
     0
  9
$DIMSOXD
 70
     0
  9
$DIMSAH
 70
     0
  9
$DIMBLK1
  1

  9
$DIMBLK2
  1

  9
$DIMSTYLE
  2
Standard
  9
$DIMCLRD
 70
     0
  9
$DIMCLRE
 70
     0
  9
$DIMCLRT
 70
     0
  9
$DIMTFAC
 40
1.0
  9
$DIMGAP
 40
0.06
  9
$DIMJUST
 70
     0
  9
$DIMSD1
 70
     0
  9
$DIMSD2
 70
     0
  9
$DIMTOLJ
 70
     1
  9
$DIMTZIN
 70
     1
  9
$DIMALTZ
 70
     0
  9
$DIMALTTZ
 70
     0
  9
$DIMUPT
 70
     0
  9
$DIMDEC
 70
     2
  9
$DIMTDEC
 70
     2
  9
$DIMALTU
 70
     2
  9
$DIMALTTD
 70
     2
  9
$DIMTXSTY
  7
Standard
  9
$DIMAUNIT
 70
     0
  9
$DIMADEC
 70
     2
  9
$DIMALTRND
 40
0.0
  9
$DIMAZIN
 70
     0
  9
$DIMDSEP
 70
    46
  9
$DIMATFIT
 70
     3
  9
$DIMFRAC
 70
     0
  9
$DIMLDRBLK
  1

  9
$DIMLUNIT
 70
     2
  9
$DIMLWD
 70
    -2
  9
$DIMLWE
 70
    -2
  9
$DIMTMOVE
 70
     0
  9
$LUNITS
 70
     2
  9
$LUPREC
 70
     2
  9
$SKETCHINC
 40
0.1
  9
$FILLETRAD
 40
0.5
  9
$AUNITS
 70
     0
  9
$AUPREC
 70
     2
  9
$MENU
  1
.
  9
$ELEVATION
 40
0.0
  9
$PELEVATION
 40
0.0
  9
$THICKNESS
 40
0.0
  9
$LIMCHECK
 70
     0
  9
$CHAMFERA
 40
0.0
  9
$CHAMFERB
 40
0.0
  9
$CHAMFERC
 40
0.0
  9
$CHAMFERD
 40
0.0
  9
$SKPOLY
 70
     0
  9
$TDCREATE
 40
2459078.050134155
  9
$TDUCREATE
 40
2459078.341800822
  9
$TDUPDATE
 40
2459078.05025213
  9
$TDUUPDATE
 40
2459078.341918796
  9
$TDINDWG
 40
0.0000000116
  9
$TDUSRTIMER
 40
0.0000000116
  9
$USRTIMER
 70
     1
  9
$ANGBASE
 50
0.0
  9
$ANGDIR
 70
     0
  9
$PDMODE
 70
     0
  9
$PDSIZE
 40
-1.0
  9
$PLINEWID
 40
0.0
  9
$SPLFRAME
 70
     0
  9
$SPLINETYPE
 70
     6
  9
$SPLINESEGS
 70
     8
  9
$HANDSEED
  5
18F
  9
$SURFTAB1
 70
     6
  9
$SURFTAB2
 70
     6
  9
$SURFTYPE
 70
     6
  9
$SURFU
 70
     6
  9
$SURFV
 70
     6
  9
$UCSBASE
  2

  9
$UCSNAME
  2

  9
$UCSORG
 10
0.0
 20
0.0
 30
0.0
  9
$UCSXDIR
 10
1.0
 20
0.0
 30
0.0
  9
$UCSYDIR
 10
0.0
 20
1.0
 30
0.0
  9
$UCSORTHOREF
  2

  9
$UCSORTHOVIEW
 70
     0
  9
$UCSORGTOP
 10
0.0
 20
0.0
 30
0.0
  9
$UCSORGBOTTOM
 10
0.0
 20
0.0
 30
0.0
  9
$UCSORGLEFT
 10
0.0
 20
0.0
 30
0.0
  9
$UCSORGRIGHT
 10
0.0
 20
0.0
 30
0.0
  9
$UCSORGFRONT
 10
0.0
 20
0.0
 30
0.0
  9
$UCSORGBACK
 10
0.0
 20
0.0
 30
0.0
  9
$PUCSBASE
  2

  9
$PUCSNAME
  2

  9
$PUCSORG
 10
0.0
 20
0.0
 30
0.0
  9
$PUCSXDIR
 10
1.0
 20
0.0
 30
0.0
  9
$PUCSYDIR
 10
0.0
 20
1.0
 30
0.0
  9
$PUCSORTHOREF
  2

  9
$PUCSORTHOVIEW
 70
     0
  9
$PUCSORGTOP
 10
0.0
 20
0.0
 30
0.0
  9
$PUCSORGBOTTOM
 10
0.0
 20
0.0
 30
0.0
  9
$PUCSORGLEFT
 10
0.0
 20
0.0
 30
0.0
  9
$PUCSORGRIGHT
 10
0.0
 20
0.0
 30
0.0
  9
$PUCSORGFRONT
 10
0.0
 20
0.0
 30
0.0
  9
$PUCSORGBACK
 10
0.0
 20
0.0
 30
0.0
  9
$USERI1
 70
     0
  9
$USERI2
 70
     0
  9
$USERI3
 70
     0
  9
$USERI4
 70
     0
  9
$USERI5
 70
     0
  9
$USERR1
 40
0.0
  9
$USERR2
 40
0.0
  9
$USERR3
 40
0.0
  9
$USERR4
 40
0.0
  9
$USERR5
 40
0.0
  9
$WORLDVIEW
 70
     1
  9
$SHADEDGE
 70
     3
  9
$SHADEDIF
 70
    70
  9
$TILEMODE
 70
     1
  9
$MAXACTVP
 70
    64
  9
$PINSBASE
 10
0.0
 20
0.0
 30
0.0
  9
$PLIMCHECK
 70
     0
  9
$PEXTMIN
 10
-4.305835563
 20
-0.75
 30
0.0
  9
$PEXTMAX
 10
6.4643841549
 20
0.0
 30
0.0
  9
$PLIMMIN
 10
-4.5622697793
 20
-1.0064338124
  9
$PLIMMAX
 10
6.7208179674
 20
7.71231581
  9
$UNITMODE
 70
     0
  9
$VISRETAIN
 70
     1
  9
$PLINEGEN
 70
     0
  9
$PSLTSCALE
 70
     1
  9
$TREEDEPTH
 70
  3020
  9
$CMLSTYLE
  2
Standard
  9
$CMLJUST
 70
     0
  9
$CMLSCALE
 40
1.0
  9
$PROXYGRAPHICS
 70
     1
  9
$MEASUREMENT
 70
     0
  9
$CELWEIGHT
370
    -1
  9
$ENDCAPS
280
     0
  9
$JOINSTYLE
280
     0
  9
$LWDISPLAY
290
     1
  9
$INSUNITS
 70
     1
  9
$HYPERLINKBASE
  1

  9
$STYLESHEET
  1

  9
$XEDIT
290
     1
  9
$CEPSNTYPE
380
     0
  9
$PSTYLEMODE
290
     1
  9
$FINGERPRINTGUID
  2
{A95C1540-A22B-468A-B9CB-2D9C194D141E}
  9
$VERSIONGUID
  2
{FAEB1C32-E019-11D5-929B-00C0DF256EC4}
  9
$EXTNAMES
290
     1
  9
$PSVPSCALE
 40
0.0
  9
$OLESTARTUP
290
     0
  0
ENDSEC
  0
SECTION
  2
CLASSES
  0
CLASS
  1
ACDBDICTIONARYWDFLT
  2
AcDbDictionaryWithDefault
  3
ObjectDBX Classes
 90
        0
280
     0
281
     0
  0
CLASS
  1
VISUALSTYLE
  2
AcDbVisualStyle
  3
ObjectDBX Classes
 90
     4095
280
     0
281
     0
  0
CLASS
  1
MATERIAL
  2
AcDbMaterial
  3
ObjectDBX Classes
 90
     1153
280
     0
281
     0
  0
CLASS
  1
SCALE
  2
AcDbScale
  3
ObjectDBX Classes
 90
     1153
280
     0
281
     0
  0
CLASS
  1
TABLESTYLE
  2
AcDbTableStyle
  3
ObjectDBX Classes
 90
     4095
280
     0
281
     0
  0
CLASS
  1
MLEADERSTYLE
  2
AcDbMLeaderStyle
  3
ACDB_MLEADERSTYLE_CLASS
 90
     4095
280
     0
281
     0
  0
CLASS
  1
SUN
  2
AcDbSun
  3
SCENEOE
 90
     1153
280
     0
281
     0
  0
CLASS
  1
ACDBPLACEHOLDER
  2
AcDbPlaceHolder
  3
ObjectDBX Classes
 90
        0
280
     0
281
     0
  0
CLASS
  1
LAYOUT
  2
AcDbLayout
  3
ObjectDBX Classes
 90
        0
280
     0
281
     0
  0
ENDSEC
  0
SECTION
  2
TABLES
  0
TABLE
  2
VPORT
  5
8
330
0
100
AcDbSymbolTable
 70
     1
  0
VPORT
  5
29
330
8
100
AcDbSymbolTableRecord
100
AcDbViewportTableRecord
  2
*Active
 70
     0
 10
0.0
 20
0.0
 11
1.0
 21
1.0
 12
1.079274296
 22
19.0416907791
 13
0.0
 23
0.0
 14
0.5
 24
0.5
 15
0.5
 25
0.5
 16
0.0
 26
0.0
 36
1.0
 17
0.0
 27
0.0
 37
0.0
 40
26.4349508106
 41
0.4155719521
 42
50.0
 43
0.0
 44
0.0
 50
0.0
 51
0.0
 71
     0
 72
   100
 73
     1
 74
     3
 75
     0
 76
     0
 77
     0
 78
     0
281
     0
 65
     1
110
0.0
120
0.0
130
0.0
111
1.0
121
0.0
131
0.0
112
0.0
122
1.0
132
0.0
 79
     0
146
0.0
  0
ENDTAB
  0
TABLE
  2
LTYPE
  5
5
330
0
100
AcDbSymbolTable
 70
     6
  0
LTYPE
  5
14
330
5
100
AcDbSymbolTableRecord
100
AcDbLinetypeTableRecord
  2
ByBlock
 70
     0
  3

 72
    65
 73
     0
 40
0.0
  0
LTYPE
  5
15
330
5
100
AcDbSymbolTableRecord
100
AcDbLinetypeTableRecord
  2
ByLayer
 70
     0
  3

 72
    65
 73
     0
 40
0.0
  0
LTYPE
  5
16
330
5
100
AcDbSymbolTableRecord
100
AcDbLinetypeTableRecord
  2
Continuous
 70
     0
  3
Solid line
 72
    65
 73
     0
 40
0.0
  0
LTYPE
  5
6E
330
5
100
AcDbSymbolTableRecord
100
AcDbLinetypeTableRecord
  2
HIDDEN
 70
     0
  3
Hidden __ __ __ __ __ __ __ __ __ __ __ __ __ __
 72
    65
 73
     2
 40
0.075
 49
0.05
 74
     0
 49
-0.025
 74
     0
  0
LTYPE
  5
6F
330
5
100
AcDbSymbolTableRecord
100
AcDbLinetypeTableRecord
  2
PHANTOM
 70
     0
  3
Phantom ______  __  __  ______  __  __  ______
 72
    65
 73
     6
 40
0.5
 49
0.25
 74
     0
 49
-0.05
 74
     0
 49
0.05
 74
     0
 49
-0.05
 74
     0
 49
0.05
 74
     0
 49
-0.05
 74
     0
  0
LTYPE
  5
70
330
5
100
AcDbSymbolTableRecord
100
AcDbLinetypeTableRecord
  2
CENTER
 70
     0
  3
Center ____ _ ____ _ ____ _ ____ _ ____ _ ____
 72
    65
 73
     4
 40
0.4
 49
0.25
 74
     0
 49
-0.05
 74
     0
 49
0.05
 74
     0
 49
-0.05
 74
     0
  0
LTYPE
  5
71
330
5
100
AcDbSymbolTableRecord
100
AcDbLinetypeTableRecord
  2
CENTERX2
 70
     0
  3
Center (2x) ________  __  ________  __  _____
 72
    65
 73
     4
 40
0.8
 49
0.5
 74
     0
 49
-0.1
 74
     0
 49
0.1
 74
     0
 49
-0.1
 74
     0
  0
LTYPE
  5
72
330
5
100
AcDbSymbolTableRecord
100
AcDbLinetypeTableRecord
  2
DOT2
 70
     0
  3
Dot (.5x) ........................................
 72
    65
 73
     2
 40
0.025
 49
0.0
 74
     0
 49
-0.025
 74
     0
  0
ENDTAB
  0
TABLE
  2
LAYER
  5
2
330
0
100
AcDbSymbolTable
 70
     1
  0
LAYER
  5
10
330
2
100
AcDbSymbolTableRecord
100
AcDbLayerTableRecord
  2
0
 70
     0
 62
     7
  6
Continuous
370
    -3
390
F
  0
ENDTAB
  0
TABLE
  2
STYLE
  5
3
330
0
100
AcDbSymbolTable
 70
     2
  0
STYLE
  5
11
330
3
100
AcDbSymbolTableRecord
100
AcDbTextStyleTableRecord
  2
Standard
 70
     0
 40
0.0
 41
1.0
 50
0.0
 71
     0
 42
0.125
  3
txt
  4

  0
STYLE
  5
17C
330
3
100
AcDbSymbolTableRecord
100
AcDbTextStyleTableRecord
  2
SLDTEXTSTYLE0
 70
     0
 40
0.0
 41
0.7
 50
0.0
 71
     0
 42
0.125
  3
TXT
  4

  0
ENDTAB
  0
TABLE
  2
VIEW
  5
6
330
0
100
AcDbSymbolTable
 70
     0
  0
ENDTAB
  0
TABLE
  2
UCS
  5
7
330
0
100
AcDbSymbolTable
 70
     0
  0
ENDTAB
  0
TABLE
  2
APPID
  5
9
330
0
100
AcDbSymbolTable
 70
     1
  0
APPID
  5
12
330
9
100
AcDbSymbolTableRecord
100
AcDbRegAppTableRecord
  2
ACAD
 70
     0
  0
ENDTAB
  0
TABLE
  2
DIMSTYLE
  5
A
330
0
100
AcDbSymbolTable
 70
     1
100
AcDbDimStyleTable
  0
DIMSTYLE
105
27
330
A
100
AcDbSymbolTableRecord
100
AcDbDimStyleTableRecord
  2
Standard
 70
     0
178
     0
340
11
  0
ENDTAB
  0
TABLE
  2
BLOCK_RECORD
  5
1
330
0
100
AcDbSymbolTable
 70
     7
  0
BLOCK_RECORD
  5
1F
330
1
100
AcDbSymbolTableRecord
100
AcDbBlockTableRecord
  2
*Model_Space
340
22
  0
BLOCK_RECORD
  5
1B
330
1
100
AcDbSymbolTableRecord
100
AcDbBlockTableRecord
  2
*Paper_Space
340
1E
  0
BLOCK_RECORD
  5
23
330
1
100
AcDbSymbolTableRecord
100
AcDbBlockTableRecord
  2
*Paper_Space0
340
26
  0
BLOCK_RECORD
  5
A9
330
1
100
AcDbSymbolTableRecord
100
AcDbBlockTableRecord
  2
*Paper_Space1
340
AA
  0
BLOCK_RECORD
  5
C1
330
1
100
AcDbSymbolTableRecord
100
AcDbBlockTableRecord
  2
*Paper_Space2
340
C2
  0
BLOCK_RECORD
  5
D5
330
1
100
AcDbSymbolTableRecord
100
AcDbBlockTableRecord
  2
*Paper_Space3
340
D6
  0
BLOCK_RECORD
  5
F7
330
1
100
AcDbSymbolTableRecord
100
AcDbBlockTableRecord
  2
*Paper_Space4
340
F8
  0
BLOCK_RECORD
  5
11E
330
1
100
AcDbSymbolTableRecord
100
AcDbBlockTableRecord
  2
*Paper_Space5
340
11F
  0
BLOCK_RECORD
  5
145
330
1
100
AcDbSymbolTableRecord
100
AcDbBlockTableRecord
  2
*Paper_Space6
340
146
  0
ENDTAB
  0
ENDSEC
  0
SECTION
  2
BLOCKS
  0
BLOCK
  5
20
330
1F
100
AcDbEntity
  8
0
100
AcDbBlockBegin
  2
*Model_Space
 70
     0
 10
0.0
 20
0.0
 30
0.0
  3
*Model_Space
  1

  0
ENDBLK
  5
21
330
1F
100
AcDbEntity
  8
0
100
AcDbBlockEnd
  0
BLOCK
  5
1C
330
1B
100
AcDbEntity
 67
     1
  8
0
100
AcDbBlockBegin
  2
*Paper_Space
 70
     0
 10
0.0
 20
0.0
 30
0.0
  3
*Paper_Space
  1

  0
ENDBLK
  5
1D
330
1B
100
AcDbEntity
 67
     1
  8
0
100
AcDbBlockEnd
  0
BLOCK
  5
24
330
23
100
AcDbEntity
  8
0
100
AcDbBlockBegin
  2
*Paper_Space0
 70
     0
 10
0.0
 20
0.0
 30
0.0
  3
*Paper_Space0
  1

  0
SPLINE
  5
9C
330
23
100
AcDbEntity
  8
0
  6
Continuous
 62
     7
370
    25
100
AcDbSpline
210
0.0
220
0.0
230
1.0
 70
     8
 71
     3
 72
    27
 73
    23
 74
     0
 42
0.000000001
 43
0.00000001
 40
0.0005081730029742
 40
0.0005081730029742
 40
0.0005081730029742
 40
0.0005081730029742
 40
0.0160981610015676
 40
0.0316881490001608
 40
0.0628681249973473
 40
0.0940481009945338
 40
0.1252280769917202
 40
0.1875880289860932
 40
0.2499479809804662
 40
0.3123079329748393
 40
0.3746678849692122
 40
0.4993877889579582
 40
0.6241076929467042
 40
0.6864676449410771
 40
0.7488275969354502
 40
0.8111875489298231
 40
0.8735475009241962
 40
0.9047274769213827
 40
0.9359074529185691
 40
0.9670874289157556
 40
0.9826774169143488
 40
0.9982674049129422
 40
0.9982674049129422
 40
0.9982674049129422
 40
0.9982674049129422
 10
0.0000000000000186
 20
31.62476717637293
 30
0.0
 10
-0.0385754983443309
 20
31.62338287815441
 30
0.0
 10
-0.1161446899012792
 20
31.62015389991143
 30
0.0
 10
-0.2677308208108533
 20
31.61204760108657
 30
0.0
 10
-0.4529492957493738
 20
31.59874929219103
 30
0.0
 10
-0.6676104067624262
 20
31.57779446794443
 30
0.0
 10
-0.9439288213765048
 20
31.54324507444098
 30
0.0
 10
-1.270595590849593
 20
31.48779733795709
 30
0.0
 10
-1.632558857092389
 20
31.40213029894724
 30
0.0
 10
-1.964481970059187
 20
31.29792647024732
 30
0.0
 10
-2.367301455228213
 20
31.13513585613387
 30
0.0
 10
-2.797275224882033
 20
30.88867795580922
 30
0.0
 10
-3.135757536096299
 20
30.58788945052298
 30
0.0
 10
-3.357256439437184
 20
30.3127244020897
 30
0.0
 10
-3.499813081104334
 20
30.08772697889931
 30
0.0
 10
-3.619414586010431
 20
29.84264426179245
 30
0.0
 10
-3.699997401621062
 20
29.62044434671329
 30
0.0
 10
-3.752811574828122
 20
29.43129918468036
 30
0.0
 10
-3.786510344023035
 20
29.28367389150507
 30
0.0
 10
-3.809607110856523
 20
29.15565108685868
 30
0.0
 10
-3.825014947527699
 20
29.05047119939211
 30
0.0
 10
-3.831740391781635
 20
28.99649473858209
 30
0.0
 10
-3.83480289654554
 20
28.96962941038021
 30
0.0
  0
SPLINE
  5
9D
330
23
100
AcDbEntity
  8
0
  6
Continuous
 62
     7
370
    25
100
AcDbSpline
210
0.0
220
0.0
230
1.0
 70
     8
 71
     3
 72
    27
 73
    23
 74
     0
 42
0.000000001
 43
0.00000001
 40
0.0005081730030283
 40
0.0005081730030283
 40
0.0005081730030283
 40
0.0005081730030283
 40
0.0160981610016207
 40
0.0316881490002131
 40
0.0628681249973979
 40
0.0940481009945827
 40
0.1252280769917675
 40
0.1875880289861371
 40
0.2499479809805067
 40
0.3123079329748764
 40
0.374667884969246
 40
0.4993877889579852
 40
0.6241076929467245
 40
0.6864676449410941
 40
0.7488275969354637
 40
0.8111875489298334
 40
0.873547500924203
 40
0.9047274769213878
 40
0.9359074529185726
 40
0.9670874289157574
 40
0.9826774169143497
 40
0.9982674049129422
 40
0.9982674049129422
 40
0.9982674049129422
 40
0.9982674049129422
 10
3.834802896545508
 20
28.96962941038049
 30
0.0
 10
3.831740391781601
 20
28.99649473858237
 30
0.0
 10
3.825014947527662
 20
29.05047119939238
 30
0.0
 10
3.80960711085648
 20
29.15565108685894
 30
0.0
 10
3.786510344022985
 20
29.28367389150532
 30
0.0
 10
3.752811574828063
 20
29.43129918468058
 30
0.0
 10
3.699997401620997
 20
29.6204443467135
 30
0.0
 10
3.619414586010356
 20
29.84264426179263
 30
0.0
 10
3.499813081104247
 20
30.08772697889946
 30
0.0
 10
3.357256439437092
 20
30.31272440208983
 30
0.0
 10
3.135757536096198
 20
30.58788945052307
 30
0.0
 10
2.797275224881933
 20
30.8886779558093
 30
0.0
 10
2.367301455228116
 20
31.13513585613389
 30
0.0
 10
1.964481970059101
 20
31.29792647024734
 30
0.0
 10
1.632558857092311
 20
31.40213029894726
 30
0.0
 10
1.270595590849531
 20
31.4877973379571
 30
0.0
 10
0.9439288213764553
 20
31.54324507444096
 30
0.0
 10
0.6676104067623916
 20
31.57779446794443
 30
0.0
 10
0.4529492957493493
 20
31.59874929219104
 30
0.0
 10
0.2677308208108373
 20
31.61204760108657
 30
0.0
 10
0.1161446899012736
 20
31.62015389991143
 30
0.0
 10
0.0385754983443286
 20
31.62338287815441
 30
0.0
 10
-0.000000000000019
 20
31.62476717637293
 30
0.0
  0
SPLINE
  5
A1
330
23
100
AcDbEntity
  8
0
  6
Continuous
 62
     7
370
    25
100
AcDbSpline
210
0.0
220
0.0
230
1.0
 70
     8
 71
     3
 72
     8
 73
     4
 74
     0
 42
0.000000001
 43
0.00000001
 40
0.0
 40
0.0
 40
0.0
 40
0.0
 40
1.0
 40
1.0
 40
1.0
 40
1.0
 10
0.0
 20
32.0
 30
0.0
 10
2.589384896799176
 20
31.91037037779552
 30
0.0
 10
3.99195813610977
 20
30.91343704574044
 30
0.0
 10
4.20771971793178
 20
29.00920000383482
 30
0.0
  0
SPLINE
  5
A2
330
23
100
AcDbEntity
  8
0
  6
Continuous
 62
     7
370
    25
100
AcDbSpline
210
0.0
220
0.0
230
1.0
 70
     8
 71
     3
 72
     8
 73
     4
 74
     0
 42
0.000000001
 43
0.00000001
 40
0.0
 40
0.0
 40
0.0
 40
0.0
 40
1.0
 40
1.0
 40
1.0
 40
1.0
 10
-4.20771971793178
 20
29.00920000383482
 30
0.0
 10
-3.99195813610977
 20
30.91343704574044
 30
0.0
 10
-2.589384896799176
 20
31.91037037779551
 30
0.0
 10
0.0
 20
32.0
 30
0.0
  0
LINE
  5
A3
330
23
100
AcDbEntity
  8
0
  6
Continuous
 62
     7
370
    25
100
AcDbLine
 10
-6.4643841549
 20
6.1201750002
 30
0.0
 11
-4.2077197179
 21
29.0092000038
 31
0.0
  0
LINE
  5
A4
330
23
100
AcDbEntity
  8
0
  6
Continuous
 62
     7
370
    25
100
AcDbLine
 10
-6.0911935299
 20
6.0833815583
 30
0.0
 11
-6.4643841549
 21
6.1201750002
 31
0.0
  0
LINE
  5
A5
330
23
100
AcDbEntity
  8
0
  6
Continuous
 62
     7
370
    25
100
AcDbLine
 10
-3.8348028965
 20
28.9696294104
 30
0.0
 11
-6.0911935299
 21
6.0833815583
 31
0.0
  0
LINE
  5
A6
330
23
100
AcDbEntity
  8
0
  6
Continuous
 62
     7
370
    25
100
AcDbLine
 10
3.932644938
 20
27.9772315618
 30
0.0
 11
3.8348028965
 21
28.9696294104
 31
0.0
  0
LINE
  5
A7
330
23
100
AcDbEntity
  8
0
  6
Continuous
 62
     7
370
    25
100
AcDbLine
 10
4.305835563
 20
28.0140250037
 30
0.0
 11
3.932644938
 21
27.9772315618
 31
0.0
  0
LINE
  5
A8
330
23
100
AcDbEntity
  8
0
  6
Continuous
 62
     7
370
    25
100
AcDbLine
 10
4.2077197179
 20
29.0092000038
 30
0.0
 11
4.305835563
 21
28.0140250037
 31
0.0
  0
VIEWPORT
  5
16E
330
23
100
AcDbEntity
  8
0
100
AcDbViewport
 10
0.0
 20
0.0
 30
0.0
 40
8.4
 41
6.4
 68
     1
 69
     1
 12
1.079274296
 22
19.0416907791
 13
0.0
 23
0.0
 14
0.5
 24
0.5
 15
0.5
 25
0.5
 16
0.0
 26
0.0
 36
1.0
 17
0.0
 27
0.0
 37
0.0
 42
50.0
 43
0.0
 44
0.0
 45
26.4349508106
 50
0.0
 51
0.0
 72
   100
 90
   557152
  1

281
     0
 71
     1
 74
     0
110
0.0
120
0.0
130
0.0
111
1.0
121
0.0
131
0.0
112
0.0
122
1.0
132
0.0
 79
     0
146
0.0
  0
MTEXT
  5
181
330
23
100
AcDbEntity
  8
0
  6
Continuous
 62
     7
100
AcDbMText
 10
-6.4643841549
 20
6.0432411491
 30
0.0
 40
0.1903
 41
0.0
 71
     1
 72
     1
  1
SOLIDWORKS Educational Product.
  7
SLDTEXTSTYLE0
 73
     1
 44
1.0
  0
MTEXT
  5
182
330
23
100
AcDbEntity
  8
0
  6
Continuous
 62
     7
100
AcDbMText
 10
-6.4643841549
 20
5.7577911491
 30
0.0
 40
0.1903
 41
0.0
 71
     1
 72
     1
  1
For Instructional Use Only.
  7
SLDTEXTSTYLE0
 73
     1
 44
1.0
  0
ENDBLK
  5
25
330
23
100
AcDbEntity
  8
0
100
AcDbBlockEnd
  0
BLOCK
  5
AB
330
A9
100
AcDbEntity
  8
0
100
AcDbBlockBegin
  2
*Paper_Space1
 70
     0
 10
0.0
 20
0.0
 30
0.0
  3
*Paper_Space1
  1

  0
SPLINE
  5
B5
330
A9
100
AcDbEntity
  8
0
  6
Continuous
 62
     7
370
    25
100
AcDbSpline
210
0.0
220
0.0
230
1.0
 70
    24
 71
     3
 72
     8
 73
     4
 74
     0
 42
0.000000001
 43
0.00000001
 40
0.0
 40
0.0
 40
0.0
 40
0.0
 40
1.0
 40
1.0
 40
1.0
 40
1.0
 10
0.0
 20
32.0
 30
0.0
 10
0.0
 20
31.91037037779552
 30
0.0
 10
0.0
 20
30.91343704574044
 30
0.0
 10
0.0
 20
29.00920000383482
 30
0.0
  0
SPLINE
  5
B6
330
A9
100
AcDbEntity
  8
0
  6
Continuous
 62
     7
370
    25
100
AcDbSpline
210
0.0
220
0.0
230
1.0
 70
    24
 71
     3
 72
     8
 73
     4
 74
     0
 42
0.000000001
 43
0.00000001
 40
0.0
 40
0.0
 40
0.0
 40
0.0
 40
1.0
 40
1.0
 40
1.0
 40
1.0
 10
0.7500000000000001
 20
32.0
 30
0.0
 10
0.7500000000000001
 20
31.91037037779552
 30
0.0
 10
0.7500000000000001
 20
30.91343704574044
 30
0.0
 10
0.7500000000000001
 20
29.00920000383482
 30
0.0
  0
LINE
  5
BA
330
A9
100
AcDbEntity
  8
0
  6
Continuous
 62
     7
370
    25
100
AcDbLine
 10
0.75
 20
28.0140250037
 30
0.0
 11
0.0
 21
28.0140250037
 31
0.0
  0
LINE
  5
BB
330
A9
100
AcDbEntity
  8
0
  6
Continuous
 62
     7
370
    25
100
AcDbLine
 10
0.75
 20
29.0092000038
 30
0.0
 11
0.75
 21
6.0833815583
 31
0.0
  0
LINE
  5
BC
330
A9
100
AcDbEntity
  8
0
  6
Continuous
 62
     7
370
    25
100
AcDbLine
 10
0.75
 20
27.9772315618
 30
0.0
 11
0.0
 21
27.9772315618
 31
0.0
  0
LINE
  5
BD
330
A9
100
AcDbEntity
  8
0
  6
Continuous
 62
     7
370
    25
100
AcDbLine
 10
0.0
 20
29.0092000038
 30
0.0
 11
0.0
 21
6.0833815583
 31
0.0
  0
LINE
  5
BE
330
A9
100
AcDbEntity
  8
0
  6
Continuous
 62
     7
370
    25
100
AcDbLine
 10
0.75
 20
29.0092000038
 30
0.0
 11
0.0
 21
29.0092000038
 31
0.0
  0
LINE
  5
BF
330
A9
100
AcDbEntity
  8
0
  6
Continuous
 62
     7
370
    25
100
AcDbLine
 10
0.75
 20
32.0
 30
0.0
 11
0.0
 21
32.0
 31
0.0
  0
LINE
  5
C0
330
A9
100
AcDbEntity
  8
0
  6
Continuous
 62
     7
370
    25
100
AcDbLine
 10
0.75
 20
6.0833815583
 30
0.0
 11
0.0
 21
6.0833815583
 31
0.0
  0
VIEWPORT
  5
170
330
A9
100
AcDbEntity
  8
0
100
AcDbViewport
 10
0.0
 20
0.0
 30
0.0
 40
8.4
 41
6.4
 68
     1
 69
     1
 12
1.079274296
 22
19.0416907791
 13
0.0
 23
0.0
 14
0.5
 24
0.5
 15
0.5
 25
0.5
 16
0.0
 26
0.0
 36
1.0
 17
0.0
 27
0.0
 37
0.0
 42
50.0
 43
0.0
 44
0.0
 45
26.4349508106
 50
0.0
 51
0.0
 72
   100
 90
   557152
  1

281
     0
 71
     1
 74
     0
110
0.0
120
0.0
130
0.0
111
1.0
121
0.0
131
0.0
112
0.0
122
1.0
132
0.0
 79
     0
146
0.0
  0
MTEXT
  5
183
330
A9
100
AcDbEntity
  8
0
  6
Continuous
 62
     7
100
AcDbMText
 10
0.0
 20
6.0432411491
 30
0.0
 40
0.1903
 41
0.0
 71
     1
 72
     1
  1
SOLIDWORKS Educational Product.
  7
SLDTEXTSTYLE0
 73
     1
 44
1.0
  0
MTEXT
  5
184
330
A9
100
AcDbEntity
  8
0
  6
Continuous
 62
     7
100
AcDbMText
 10
0.0
 20
5.7577911491
 30
0.0
 40
0.1903
 41
0.0
 71
     1
 72
     1
  1
For Instructional Use Only.
  7
SLDTEXTSTYLE0
 73
     1
 44
1.0
  0
ENDBLK
  5
AC
330
A9
100
AcDbEntity
  8
0
100
AcDbBlockEnd
  0
BLOCK
  5
C3
330
C1
100
AcDbEntity
  8
0
100
AcDbBlockBegin
  2
*Paper_Space2
 70
     0
 10
0.0
 20
0.0
 30
0.0
  3
*Paper_Space2
  1

  0
SPLINE
  5
CD
330
C1
100
AcDbEntity
  8
0
  6
Continuous
 62
     7
370
    25
100
AcDbSpline
210
0.0
220
0.0
230
1.0
 70
    24
 71
     3
 72
     8
 73
     4
 74
     0
 42
0.000000001
 43
0.00000001
 40
0.0
 40
0.0
 40
0.0
 40
0.0
 40
1.0
 40
1.0
 40
1.0
 40
1.0
 10
0.0
 20
29.00920000383482
 30
0.0
 10
0.0
 20
30.91343704574044
 30
0.0
 10
0.0
 20
31.91037037779551
 30
0.0
 10
0.0
 20
32.0
 30
0.0
  0
SPLINE
  5
CE
330
C1
100
AcDbEntity
  8
0
  6
Continuous
 62
     7
370
    25
100
AcDbSpline
210
0.0
220
0.0
230
1.0
 70
    24
 71
     3
 72
     8
 73
     4
 74
     0
 42
0.000000001
 43
0.00000001
 40
0.0
 40
0.0
 40
0.0
 40
0.0
 40
1.0
 40
1.0
 40
1.0
 40
1.0
 10
-0.7500000000000001
 20
29.00920000383482
 30
0.0
 10
-0.7500000000000001
 20
30.91343704574044
 30
0.0
 10
-0.7500000000000001
 20
31.91037037779551
 30
0.0
 10
-0.7500000000000001
 20
32.0
 30
0.0
  0
LINE
  5
CF
330
C1
100
AcDbEntity
  8
0
  6
Continuous
 62
     7
370
    25
100
AcDbLine
 10
-0.75
 20
6.1201750002
 30
0.0
 11
0.0
 21
6.1201750002
 31
0.0
  0
LINE
  5
D0
330
C1
100
AcDbEntity
  8
0
  6
Continuous
 62
     7
370
    25
100
AcDbLine
 10
-0.75
 20
6.0833815583
 30
0.0
 11
-0.75
 21
29.0092000038
 31
0.0
  0
LINE
  5
D1
330
C1
100
AcDbEntity
  8
0
  6
Continuous
 62
     7
370
    25
100
AcDbLine
 10
-0.75
 20
29.0092000038
 30
0.0
 11
0.0
 21
29.0092000038
 31
0.0
  0
LINE
  5
D2
330
C1
100
AcDbEntity
  8
0
  6
Continuous
 62
     7
370
    25
100
AcDbLine
 10
0.0
 20
6.0833815583
 30
0.0
 11
0.0
 21
29.0092000038
 31
0.0
  0
LINE
  5
D3
330
C1
100
AcDbEntity
  8
0
  6
Continuous
 62
     7
370
    25
100
AcDbLine
 10
-0.75
 20
6.0833815583
 30
0.0
 11
0.0
 21
6.0833815583
 31
0.0
  0
LINE
  5
D4
330
C1
100
AcDbEntity
  8
0
  6
Continuous
 62
     7
370
    25
100
AcDbLine
 10
-0.75
 20
32.0
 30
0.0
 11
0.0
 21
32.0
 31
0.0
  0
VIEWPORT
  5
172
330
C1
100
AcDbEntity
  8
0
100
AcDbViewport
 10
0.0
 20
0.0
 30
0.0
 40
8.4
 41
6.4
 68
     1
 69
     1
 12
1.079274296
 22
19.0416907791
 13
0.0
 23
0.0
 14
0.5
 24
0.5
 15
0.5
 25
0.5
 16
0.0
 26
0.0
 36
1.0
 17
0.0
 27
0.0
 37
0.0
 42
50.0
 43
0.0
 44
0.0
 45
26.4349508106
 50
0.0
 51
0.0
 72
   100
 90
   557152
  1

281
     0
 71
     1
 74
     0
110
0.0
120
0.0
130
0.0
111
1.0
121
0.0
131
0.0
112
0.0
122
1.0
132
0.0
 79
     0
146
0.0
  0
MTEXT
  5
185
330
C1
100
AcDbEntity
  8
0
  6
Continuous
 62
     7
100
AcDbMText
 10
-0.75
 20
6.0432411491
 30
0.0
 40
0.1903
 41
0.0
 71
     1
 72
     1
  1
SOLIDWORKS Educational Product.
  7
SLDTEXTSTYLE0
 73
     1
 44
1.0
  0
MTEXT
  5
186
330
C1
100
AcDbEntity
  8
0
  6
Continuous
 62
     7
100
AcDbMText
 10
-0.75
 20
5.7577911491
 30
0.0
 40
0.1903
 41
0.0
 71
     1
 72
     1
  1
For Instructional Use Only.
  7
SLDTEXTSTYLE0
 73
     1
 44
1.0
  0
ENDBLK
  5
C4
330
C1
100
AcDbEntity
  8
0
100
AcDbBlockEnd
  0
BLOCK
  5
D7
330
D5
100
AcDbEntity
  8
0
100
AcDbBlockBegin
  2
*Paper_Space3
 70
     0
 10
0.0
 20
0.0
 30
0.0
  3
*Paper_Space3
  1

  0
SPLINE
  5
E8
330
D5
100
AcDbEntity
  8
0
  6
Continuous
 62
     7
370
    25
100
AcDbSpline
210
0.0
220
0.0
230
1.0
 70
    24
 71
     3
 72
    27
 73
    23
 74
     0
 42
0.000000001
 43
0.00000001
 40
0.0005081730029742
 40
0.0005081730029742
 40
0.0005081730029742
 40
0.0005081730029742
 40
0.0160981610015676
 40
0.0316881490001608
 40
0.0628681249973473
 40
0.0940481009945338
 40
0.1252280769917202
 40
0.1875880289860932
 40
0.2499479809804662
 40
0.3123079329748393
 40
0.3746678849692122
 40
0.4993877889579582
 40
0.6241076929467042
 40
0.6864676449410771
 40
0.7488275969354502
 40
0.8111875489298231
 40
0.8735475009241962
 40
0.9047274769213827
 40
0.9359074529185691
 40
0.9670874289157556
 40
0.9826774169143488
 40
0.9982674049129422
 40
0.9982674049129422
 40
0.9982674049129422
 40
0.9982674049129422
 10
-0.0000000000000186
 20
0.0
 30
0.0
 10
0.0385754983443309
 20
0.0
 30
0.0
 10
0.1161446899012792
 20
0.0
 30
0.0
 10
0.2677308208108533
 20
0.0
 30
0.0
 10
0.4529492957493738
 20
0.0
 30
0.0
 10
0.6676104067624262
 20
0.0
 30
0.0
 10
0.9439288213765048
 20
0.0
 30
0.0
 10
1.270595590849593
 20
0.0
 30
0.0
 10
1.632558857092389
 20
0.0
 30
0.0
 10
1.964481970059187
 20
0.0
 30
0.0
 10
2.367301455228213
 20
0.0
 30
0.0
 10
2.797275224882033
 20
0.0
 30
0.0
 10
3.135757536096299
 20
0.0
 30
0.0
 10
3.357256439437184
 20
0.0
 30
0.0
 10
3.499813081104334
 20
0.0
 30
0.0
 10
3.619414586010431
 20
0.0
 30
0.0
 10
3.699997401621062
 20
0.0
 30
0.0
 10
3.752811574828122
 20
0.0
 30
0.0
 10
3.786510344023035
 20
0.0
 30
0.0
 10
3.809607110856523
 20
0.0
 30
0.0
 10
3.825014947527699
 20
0.0
 30
0.0
 10
3.831740391781635
 20
0.0
 30
0.0
 10
3.83480289654554
 20
0.0
 30
0.0
  0
SPLINE
  5
E9
330
D5
100
AcDbEntity
  8
0
  6
Continuous
 62
     7
370
    25
100
AcDbSpline
210
0.0
220
0.0
230
1.0
 70
    24
 71
     3
 72
    27
 73
    23
 74
     0
 42
0.000000001
 43
0.00000001
 40
0.0005081730029742
 40
0.0005081730029742
 40
0.0005081730029742
 40
0.0005081730029742
 40
0.0160981610015676
 40
0.0316881490001608
 40
0.0628681249973473
 40
0.0940481009945338
 40
0.1252280769917202
 40
0.1875880289860932
 40
0.2499479809804662
 40
0.3123079329748393
 40
0.3746678849692122
 40
0.4993877889579582
 40
0.6241076929467042
 40
0.6864676449410771
 40
0.7488275969354502
 40
0.8111875489298231
 40
0.8735475009241962
 40
0.9047274769213827
 40
0.9359074529185691
 40
0.9670874289157556
 40
0.9826774169143488
 40
0.9982674049129422
 40
0.9982674049129422
 40
0.9982674049129422
 40
0.9982674049129422
 10
-0.0000000000000186
 20
0.7500000000000001
 30
0.0
 10
0.0385754983443309
 20
0.7500000000000001
 30
0.0
 10
0.1161446899012792
 20
0.7500000000000001
 30
0.0
 10
0.2677308208108533
 20
0.7500000000000001
 30
0.0
 10
0.4529492957493738
 20
0.7500000000000001
 30
0.0
 10
0.6676104067624262
 20
0.7500000000000001
 30
0.0
 10
0.9439288213765048
 20
0.7500000000000001
 30
0.0
 10
1.270595590849593
 20
0.7500000000000001
 30
0.0
 10
1.632558857092389
 20
0.7500000000000001
 30
0.0
 10
1.964481970059187
 20
0.7500000000000001
 30
0.0
 10
2.367301455228213
 20
0.7500000000000001
 30
0.0
 10
2.797275224882033
 20
0.7500000000000001
 30
0.0
 10
3.135757536096299
 20
0.7500000000000001
 30
0.0
 10
3.357256439437184
 20
0.7500000000000001
 30
0.0
 10
3.499813081104334
 20
0.7500000000000001
 30
0.0
 10
3.619414586010431
 20
0.7500000000000001
 30
0.0
 10
3.699997401621062
 20
0.7500000000000001
 30
0.0
 10
3.752811574828122
 20
0.7500000000000001
 30
0.0
 10
3.786510344023035
 20
0.7500000000000001
 30
0.0
 10
3.809607110856523
 20
0.7500000000000001
 30
0.0
 10
3.825014947527699
 20
0.7500000000000001
 30
0.0
 10
3.831740391781635
 20
0.7500000000000001
 30
0.0
 10
3.83480289654554
 20
0.7500000000000001
 30
0.0
  0
SPLINE
  5
EA
330
D5
100
AcDbEntity
  8
0
  6
Continuous
 62
     7
370
    25
100
AcDbSpline
210
0.0
220
0.0
230
1.0
 70
    24
 71
     3
 72
    27
 73
    23
 74
     0
 42
0.000000001
 43
0.00000001
 40
0.0005081730030283
 40
0.0005081730030283
 40
0.0005081730030283
 40
0.0005081730030283
 40
0.0160981610016207
 40
0.0316881490002131
 40
0.0628681249973979
 40
0.0940481009945827
 40
0.1252280769917675
 40
0.1875880289861371
 40
0.2499479809805067
 40
0.3123079329748764
 40
0.374667884969246
 40
0.4993877889579852
 40
0.6241076929467245
 40
0.6864676449410941
 40
0.7488275969354637
 40
0.8111875489298334
 40
0.873547500924203
 40
0.9047274769213878
 40
0.9359074529185726
 40
0.9670874289157574
 40
0.9826774169143497
 40
0.9982674049129422
 40
0.9982674049129422
 40
0.9982674049129422
 40
0.9982674049129422
 10
-3.834802896545508
 20
0.0
 30
0.0
 10
-3.831740391781601
 20
0.0
 30
0.0
 10
-3.825014947527662
 20
0.0
 30
0.0
 10
-3.80960711085648
 20
0.0
 30
0.0
 10
-3.786510344022985
 20
0.0
 30
0.0
 10
-3.752811574828063
 20
0.0
 30
0.0
 10
-3.699997401620997
 20
0.0
 30
0.0
 10
-3.619414586010356
 20
0.0
 30
0.0
 10
-3.499813081104247
 20
0.0
 30
0.0
 10
-3.357256439437092
 20
0.0
 30
0.0
 10
-3.135757536096198
 20
0.0
 30
0.0
 10
-2.797275224881933
 20
0.0
 30
0.0
 10
-2.367301455228116
 20
0.0
 30
0.0
 10
-1.964481970059101
 20
0.0
 30
0.0
 10
-1.632558857092311
 20
0.0
 30
0.0
 10
-1.270595590849531
 20
0.0
 30
0.0
 10
-0.9439288213764553
 20
0.0
 30
0.0
 10
-0.6676104067623916
 20
0.0
 30
0.0
 10
-0.4529492957493493
 20
0.0
 30
0.0
 10
-0.2677308208108373
 20
0.0
 30
0.0
 10
-0.1161446899012736
 20
0.0
 30
0.0
 10
-0.0385754983443286
 20
0.0
 30
0.0
 10
0.000000000000019
 20
0.0
 30
0.0
  0
SPLINE
  5
EB
330
D5
100
AcDbEntity
  8
0
  6
Continuous
 62
     7
370
    25
100
AcDbSpline
210
0.0
220
0.0
230
1.0
 70
    24
 71
     3
 72
    27
 73
    23
 74
     0
 42
0.000000001
 43
0.00000001
 40
0.0005081730030283
 40
0.0005081730030283
 40
0.0005081730030283
 40
0.0005081730030283
 40
0.0160981610016207
 40
0.0316881490002131
 40
0.0628681249973979
 40
0.0940481009945827
 40
0.1252280769917675
 40
0.1875880289861371
 40
0.2499479809805067
 40
0.3123079329748764
 40
0.374667884969246
 40
0.4993877889579852
 40
0.6241076929467245
 40
0.6864676449410941
 40
0.7488275969354637
 40
0.8111875489298334
 40
0.873547500924203
 40
0.9047274769213878
 40
0.9359074529185726
 40
0.9670874289157574
 40
0.9826774169143497
 40
0.9982674049129422
 40
0.9982674049129422
 40
0.9982674049129422
 40
0.9982674049129422
 10
-3.834802896545508
 20
0.7500000000000001
 30
0.0
 10
-3.831740391781601
 20
0.7500000000000001
 30
0.0
 10
-3.825014947527662
 20
0.7500000000000001
 30
0.0
 10
-3.80960711085648
 20
0.7500000000000001
 30
0.0
 10
-3.786510344022985
 20
0.7500000000000001
 30
0.0
 10
-3.752811574828063
 20
0.7500000000000001
 30
0.0
 10
-3.699997401620997
 20
0.7500000000000001
 30
0.0
 10
-3.619414586010356
 20
0.7500000000000001
 30
0.0
 10
-3.499813081104247
 20
0.7500000000000001
 30
0.0
 10
-3.357256439437092
 20
0.7500000000000001
 30
0.0
 10
-3.135757536096198
 20
0.7500000000000001
 30
0.0
 10
-2.797275224881933
 20
0.7500000000000001
 30
0.0
 10
-2.367301455228116
 20
0.7500000000000001
 30
0.0
 10
-1.964481970059101
 20
0.7500000000000001
 30
0.0
 10
-1.632558857092311
 20
0.7500000000000001
 30
0.0
 10
-1.270595590849531
 20
0.7500000000000001
 30
0.0
 10
-0.9439288213764553
 20
0.7500000000000001
 30
0.0
 10
-0.6676104067623916
 20
0.7500000000000001
 30
0.0
 10
-0.4529492957493493
 20
0.7500000000000001
 30
0.0
 10
-0.2677308208108373
 20
0.7500000000000001
 30
0.0
 10
-0.1161446899012736
 20
0.7500000000000001
 30
0.0
 10
-0.0385754983443286
 20
0.7500000000000001
 30
0.0
 10
0.000000000000019
 20
0.7500000000000001
 30
0.0
  0
LINE
  5
EC
330
D5
100
AcDbEntity
  8
0
  6
Continuous
 62
     7
370
    25
100
AcDbLine
 10
3.8348028965
 20
0.75
 30
0.0
 11
3.8348028965
 21
0.0
 31
0.0
  0
LINE
  5
ED
330
D5
100
AcDbEntity
  8
0
  6
Continuous
 62
     7
370
    25
100
AcDbLine
 10
3.8348028965
 20
0.75
 30
0.0
 11
6.4643841549
 21
0.75
 31
0.0
  0
LINE
  5
EE
330
D5
100
AcDbEntity
  8
0
  6
Continuous
 62
     7
370
    25
100
AcDbLine
 10
6.0911935299
 20
0.75
 30
0.0
 11
6.0911935299
 21
0.0
 31
0.0
  0
LINE
  5
EF
330
D5
100
AcDbEntity
  8
0
  6
Continuous
 62
     7
370
    25
100
AcDbLine
 10
3.8348028965
 20
0.0
 30
0.0
 11
6.4643841549
 21
0.0
 31
0.0
  0
LINE
  5
F0
330
D5
100
AcDbEntity
  8
0
  6
Continuous
 62
     7
370
    25
100
AcDbLine
 10
6.4643841549
 20
0.75
 30
0.0
 11
6.4643841549
 21
0.0
 31
0.0
  0
LINE
  5
F1
330
D5
100
AcDbEntity
  8
0
  6
Continuous
 62
     7
370
    25
100
AcDbLine
 10
-4.305835563
 20
0.75
 30
0.0
 11
-4.305835563
 21
0.0
 31
0.0
  0
LINE
  5
F2
330
D5
100
AcDbEntity
  8
0
  6
Continuous
 62
     7
370
    25
100
AcDbLine
 10
-3.932644938
 20
0.75
 30
0.0
 11
-3.932644938
 21
0.0
 31
0.0
  0
LINE
  5
F3
330
D5
100
AcDbEntity
  8
0
  6
Continuous
 62
     7
370
    25
100
AcDbLine
 10
-4.305835563
 20
0.0
 30
0.0
 11
-3.8348028965
 21
0.0
 31
0.0
  0
LINE
  5
F4
330
D5
100
AcDbEntity
  8
0
  6
Continuous
 62
     7
370
    25
100
AcDbLine
 10
-4.305835563
 20
0.75
 30
0.0
 11
-3.8348028965
 21
0.75
 31
0.0
  0
LINE
  5
F5
330
D5
100
AcDbEntity
  8
0
  6
Continuous
 62
     7
370
    25
100
AcDbLine
 10
-3.8348028965
 20
0.75
 30
0.0
 11
-3.8348028965
 21
0.0
 31
0.0
  0
LINE
  5
F6
330
D5
100
AcDbEntity
  8
0
  6
Continuous
 62
     7
370
    25
100
AcDbLine
 10
0.0
 20
0.75
 30
0.0
 11
0.0
 21
0.0
 31
0.0
  0
VIEWPORT
  5
174
330
D5
100
AcDbEntity
  8
0
100
AcDbViewport
 10
0.0
 20
0.0
 30
0.0
 40
8.4
 41
6.4
 68
     1
 69
     1
 12
1.079274296
 22
19.0416907791
 13
0.0
 23
0.0
 14
0.5
 24
0.5
 15
0.5
 25
0.5
 16
0.0
 26
0.0
 36
1.0
 17
0.0
 27
0.0
 37
0.0
 42
50.0
 43
0.0
 44
0.0
 45
26.4349508106
 50
0.0
 51
0.0
 72
   100
 90
   557152
  1

281
     0
 71
     1
 74
     0
110
0.0
120
0.0
130
0.0
111
1.0
121
0.0
131
0.0
112
0.0
122
1.0
132
0.0
 79
     0
146
0.0
  0
MTEXT
  5
187
330
D5
100
AcDbEntity
  8
0
  6
Continuous
 62
     7
100
AcDbMText
 10
-4.305835563
 20
-0.0401404091
 30
0.0
 40
0.1903
 41
0.0
 71
     1
 72
     1
  1
SOLIDWORKS Educational Product.
  7
SLDTEXTSTYLE0
 73
     1
 44
1.0
  0
MTEXT
  5
188
330
D5
100
AcDbEntity
  8
0
  6
Continuous
 62
     7
100
AcDbMText
 10
-4.305835563
 20
-0.3255904091
 30
0.0
 40
0.1903
 41
0.0
 71
     1
 72
     1
  1
For Instructional Use Only.
  7
SLDTEXTSTYLE0
 73
     1
 44
1.0
  0
ENDBLK
  5
D8
330
D5
100
AcDbEntity
  8
0
100
AcDbBlockEnd
  0
BLOCK
  5
F9
330
F7
100
AcDbEntity
  8
0
100
AcDbBlockBegin
  2
*Paper_Space4
 70
     0
 10
0.0
 20
0.0
 30
0.0
  3
*Paper_Space4
  1

  0
SPLINE
  5
FF
330
F7
100
AcDbEntity
  8
0
  6
Continuous
 62
     7
370
    25
100
AcDbSpline
210
0.0
220
0.0
230
1.0
 70
     8
 71
     3
 72
    27
 73
    23
 74
     0
 42
0.000000001
 43
0.00000001
 40
0.0005081730029742
 40
0.0005081730029742
 40
0.0005081730029742
 40
0.0005081730029742
 40
0.0160981610015676
 40
0.0316881490001608
 40
0.0628681249973473
 40
0.0940481009945338
 40
0.1252280769917202
 40
0.1875880289860932
 40
0.2499479809804662
 40
0.3123079329748393
 40
0.3746678849692122
 40
0.4993877889579582
 40
0.6241076929467042
 40
0.6864676449410771
 40
0.7488275969354502
 40
0.8111875489298231
 40
0.8735475009241962
 40
0.9047274769213827
 40
0.9359074529185691
 40
0.9670874289157556
 40
0.9826774169143488
 40
0.9982674049129422
 40
0.9982674049129422
 40
0.9982674049129422
 40
0.9982674049129422
 10
-0.5303300858899249
 20
25.51676002395986
 30
0.0
 10
-0.5030530894229849
 20
25.49988301308565
 30
0.0
 10
-0.4482033880619085
 20
25.46558236196226
 30
0.0
 10
-0.3410158069619171
 20
25.39708516468122
 30
0.0
 10
-0.2100465673318588
 20
25.31061962003933
 30
0.0
 10
-0.0582582400774915
 20
25.20588361467411
 30
0.0
 10
0.1371283846628391
 20
25.06487832728419
 30
0.0
 10
0.368116672545562
 20
24.88625628728804
 30
0.0
 10
0.6240633526462743
 20
24.66855078033186
 30
0.0
 10
0.8587684366576456
 20
24.44797174047984
 30
0.0
 10
1.143604826214737
 20
24.15061401261814
 30
0.0
 10
1.447642194469295
 20
23.77385404188322
 30
0.0
 10
1.686985332040597
 20
23.39007809927897
 30
0.0
 10
1.843608708618321
 20
23.07497785650502
 30
0.0
 10
1.944411476644343
 20
22.83306607857531
 30
0.0
 10
2.02898251180356
 20
22.58412421837394
 30
0.0
 10
2.085963167168943
 20
22.36979468714523
 30
0.0
 10
2.123308427186415
 20
22.19379098326187
 30
0.0
 10
2.147137055401779
 20
22.05949293225307
 30
0.0
 10
2.163468935853223
 20
21.94552889350735
 30
0.0
 10
2.174363921646826
 20
21.85335568137935
 30
0.0
 10
2.179119528885276
 20
21.80653634462455
 30
0.0
 10
2.181285046771249
 20
21.78334958085714
 30
0.0
  0
SPLINE
  5
100
330
F7
100
AcDbEntity
  8
0
  6
Continuous
 62
     7
370
    25
100
AcDbSpline
210
0.0
220
0.0
230
1.0
 70
     8
 71
     3
 72
    27
 73
    23
 74
     0
 42
0.000000001
 43
0.00000001
 40
0.0005081730030283
 40
0.0005081730030283
 40
0.0005081730030283
 40
0.0005081730030283
 40
0.0160981610016207
 40
0.0316881490002131
 40
0.0628681249973979
 40
0.0940481009945827
 40
0.1252280769917675
 40
0.1875880289861371
 40
0.2499479809805067
 40
0.3123079329748764
 40
0.374667884969246
 40
0.4993877889579852
 40
0.6241076929467245
 40
0.6864676449410941
 40
0.7488275969354637
 40
0.8111875489298334
 40
0.873547500924203
 40
0.9047274769213878
 40
0.9359074529185726
 40
0.9670874289157574
 40
0.9826774169143497
 40
0.9982674049129422
 40
0.9982674049129422
 40
0.9982674049129422
 40
0.9982674049129422
 10
-3.24194521855105
 20
24.91411377283836
 30
0.0
 10
-3.239779700665076
 20
24.93480028287403
 30
0.0
 10
-3.235024093426623
 20
24.97612891238429
 30
0.0
 10
-3.224129107633015
 20
25.05572304166828
 30
0.0
 10
-3.207797227181567
 20
25.15083069261426
 30
0.0
 10
-3.183968598966198
 20
25.25761679509387
 30
0.0
 10
-3.14662333894872
 20
25.39050257955176
 30
0.0
 10
-3.089642683583331
 20
25.5390436464424
 30
0.0
 10
-3.005071648424106
 20
25.6903418678522
 30
0.0
 10
-2.904268880398079
 20
25.81586924713063
 30
0.0
 10
-2.74764550382035
 20
25.95013598845722
 30
0.0
 10
-2.508302366249048
 20
26.05757222647763
 30
0.0
 10
-2.204264997994492
 20
26.08329812379615
 30
0.0
 10
-1.919428608437408
 20
26.05179075636561
 30
0.0
 10
-1.684723524426043
 20
26.00138507429007
 30
0.0
 10
-1.428776844325342
 20
25.9235808345038
 30
0.0
 10
-1.197788556442627
 20
25.83550947403918
 30
0.0
 10
-1.002401931702307
 20
25.7509261662922
 30
0.0
 10
-0.8506136044479469
 20
25.6804110993335
 30
0.0
 10
-0.7196443648178948
 20
25.61566277857615
 30
0.0
 10
-0.6124567837179108
 20
25.56040382894279
 30
0.0
 10
-0.5576070823568368
 20
25.53137636285156
 30
0.0
 10
-0.530330085889898
 20
25.51676002395984
 30
0.0
  0
SPLINE
  5
104
330
F7
100
AcDbEntity
  8
0
  6
Continuous
 62
     7
370
    25
100
AcDbSpline
210
0.0
220
0.0
230
1.0
 70
     8
 71
     3
 72
     8
 73
     4
 74
     0
 42
0.000000001
 43
0.00000001
 40
0.0
 40
0.0
 40
0.0
 40
0.0
 40
1.0
 40
1.0
 40
1.0
 40
1.0
 10
-0.5303300858899116
 20
25.82315293841048
 30
0.0
 10
-2.361301705518635
 20
26.80696411111565
 30
0.0
 10
-3.353070754145936
 20
26.56546344376275
 30
0.0
 10
-3.505637231771815
 20
25.0986509363518
 30
0.0
  0
SPLINE
  5
105
330
F7
100
AcDbEntity
  8
0
  6
Continuous
 62
     7
370
    25
100
AcDbSpline
210
0.0
220
0.0
230
1.0
 70
     8
 71
     3
 72
     8
 73
     4
 74
     0
 42
0.000000001
 43
0.00000001
 40
0.0
 40
0.0
 40
0.0
 40
0.0
 40
1.0
 40
1.0
 40
1.0
 40
1.0
 10
2.444977059991992
 20
21.66343442635593
 30
0.0
 10
2.292410582366113
 20
23.30639643938607
 30
0.0
 10
1.300641533738812
 20
24.69296927673758
 30
0.0
 10
-0.5303300858899116
 20
25.82315293841048
 30
0.0
  0
SPLINE
  5
108
330
F7
100
AcDbEntity
  8
0
  6
Continuous
 62
     7
370
    25
100
AcDbSpline
210
0.0
220
0.0
230
1.0
 70
     8
 71
     3
 72
     8
 73
     4
 74
     0
 42
0.000000001
 43
0.00000001
 40
0.0
 40
0.0
 40
0.0
 40
0.0
 40
1.0
 40
1.0
 40
1.0
 40
1.0
 10
2.975307145881903
 20
21.96958746828945
 30
0.0
 10
2.822740668256024
 20
23.61254948131958
 30
0.0
 10
1.830971619628723
 20
24.99912231867109
 30
0.0
 10
0.0
 20
26.12930598034399
 30
0.0
  0
SPLINE
  5
10B
330
F7
100
AcDbEntity
  8
0
  6
Continuous
 62
     7
370
    25
100
AcDbSpline
210
0.0
220
0.0
230
1.0
 70
     8
 71
     3
 72
    16
 73
    12
 74
     0
 42
0.000000001
 43
0.00000001
 40
0.0
 40
0.0
 40
0.0
 40
0.0
 40
0.1450838219871672
 40
0.2812628106097774
 40
0.4090602349194697
 40
0.5291090148222559
 40
0.6421722742399157
 40
0.7491627171877963
 40
0.8511562087069332
 40
0.9493929275058949
 40
1.0
 40
1.0
 40
1.0
 40
1.0
 10
0.0
 20
26.129305980344
 30
0.0
 10
-0.124170774854121
 20
26.19398518368911
 30
0.0
 10
-0.3648910746967393
 20
26.31937376438459
 30
0.0
 10
-0.7131041499539333
 20
26.47194958817583
 30
0.0
 10
-1.036857448857798
 20
26.58994627324775
 30
0.0
 10
-1.3361699797053
 20
26.6716545001456
 30
0.0
 10
-1.610923510771227
 20
26.71717431387496
 30
0.0
 10
-1.861576706515874
 20
26.72711753249645
 30
0.0
 10
-2.08640083678858
 20
26.69846967911084
 30
0.0
 10
-2.259827602771156
 20
26.64995846785883
 30
0.0
 10
-2.3483939218616
 20
26.59497484220089
 30
0.0
 10
-2.37850657951301
 20
26.57628034170821
 30
0.0
  0
SPLINE
  5
10D
330
F7
100
AcDbEntity
  8
0
  6
Continuous
 62
     7
370
    25
100
AcDbSpline
210
0.0
220
0.0
230
1.0
 70
     8
 71
     3
 72
    11
 73
     7
 74
     0
 42
0.000000001
 43
0.00000001
 40
0.0
 40
0.0
 40
0.0
 40
0.0
 40
0.309334208752561
 40
0.5968207518102744
 40
0.86833647960385
 40
1.0
 40
1.0
 40
1.0
 40
1.0
 10
-2.711615132661139
 20
25.22026681477188
 30
0.0
 10
-2.698201613727322
 20
25.32106013123969
 30
0.0
 10
-2.672321946273843
 20
25.51552793082241
 30
0.0
 10
-2.594407004137998
 20
25.76501990825465
 30
0.0
 10
-2.512424254833773
 20
25.94463968847282
 30
0.0
 10
-2.44435726353855
 20
26.02460436719868
 30
0.0
 10
-2.422129086525616
 20
26.05071789153226
 30
0.0
  0
LINE
  5
110
330
F7
100
AcDbEntity
  8
0
  6
Continuous
 62
     7
370
    25
100
AcDbLine
 10
-2.3814916192
 20
26.5814528684
 30
0.0
 11
-2.9118217051
 21
26.2752998265
 31
0.0
  0
LINE
  5
111
330
F7
100
AcDbEntity
  8
0
  6
Continuous
 62
     7
370
    25
100
AcDbLine
 10
4.0406797863
 20
2.0524317906
 30
0.0
 11
2.44497706
 21
21.6634344264
 31
0.0
  0
LINE
  5
112
330
F7
100
AcDbEntity
  8
0
  6
Continuous
 62
     7
370
    25
100
AcDbLine
 10
3.7767941646
 20
2.1747263704
 30
0.0
 11
4.0406797863
 21
2.0524317906
 31
0.0
  0
LINE
  5
113
330
F7
100
AcDbEntity
  8
0
  6
Continuous
 62
     7
370
    25
100
AcDbLine
 10
2.1812850468
 20
21.7833495809
 30
0.0
 11
3.7767941646
 21
2.1747263704
 31
0.0
  0
LINE
  5
114
330
F7
100
AcDbEntity
  8
0
  6
Continuous
 62
     7
370
    25
100
AcDbLine
 10
-3.3111299895
 20
24.143719946
 30
0.0
 11
-3.2419452186
 21
24.9141137728
 31
0.0
  0
LINE
  5
115
330
F7
100
AcDbEntity
  8
0
  6
Continuous
 62
     7
370
    25
100
AcDbLine
 10
-3.5750156112
 20
24.3261012197
 30
0.0
 11
-3.3111299895
 21
24.143719946
 31
0.0
  0
LINE
  5
116
330
F7
100
AcDbEntity
  8
0
  6
Continuous
 62
     7
370
    25
100
AcDbLine
 10
-3.5056372318
 20
25.0986509364
 30
0.0
 11
-3.5750156112
 21
24.3261012197
 31
0.0
  0
LINE
  5
117
330
F7
100
AcDbEntity
  8
0
  6
Continuous
 62
     7
370
    25
100
AcDbLine
 10
2.44497706
 20
21.6634344264
 30
0.0
 11
2.9753071459
 21
21.9695874683
 31
0.0
  0
LINE
  5
118
330
F7
100
AcDbEntity
  8
0
  6
Continuous
 62
     7
370
    25
100
AcDbLine
 10
-0.5303300859
 20
25.8231529384
 30
0.0
 11
0.0
 21
26.1293059803
 31
0.0
  0
LINE
  5
119
330
F7
100
AcDbEntity
  8
0
  6
Continuous
 62
     7
370
    25
100
AcDbLine
 10
4.0406797863
 20
2.0524317906
 30
0.0
 11
4.5710098721
 21
2.3585848325
 31
0.0
  0
LINE
  5
11A
330
F7
100
AcDbEntity
  8
0
  6
Continuous
 62
     7
370
    25
100
AcDbLine
 10
4.5710098721
 20
2.3585848325
 30
0.0
 11
2.9753071459
 21
21.9695874683
 31
0.0
  0
LINE
  5
11B
330
F7
100
AcDbEntity
  8
0
  6
Continuous
 62
     7
370
    25
100
AcDbLine
 10
-3.2419452186
 20
24.9141137728
 30
0.0
 11
-2.7116151327
 21
25.2202668148
 31
0.0
  0
LINE
  5
11C
330
F7
100
AcDbEntity
  8
0
  6
Continuous
 62
     7
370
    25
100
AcDbLine
 10
-3.3111299895
 20
24.143719946
 30
0.0
 11
-2.7807999036
 21
24.4498729879
 31
0.0
  0
LINE
  5
11D
330
F7
100
AcDbEntity
  8
0
  6
Continuous
 62
     7
370
    25
100
AcDbLine
 10
-2.7807999036
 20
24.4498729879
 30
0.0
 11
-2.7116151327
 21
25.2202668148
 31
0.0
  0
VIEWPORT
  5
176
330
F7
100
AcDbEntity
  8
0
100
AcDbViewport
 10
0.0
 20
0.0
 30
0.0
 40
8.4
 41
6.4
 68
     1
 69
     1
 12
1.079274296
 22
19.0416907791
 13
0.0
 23
0.0
 14
0.5
 24
0.5
 15
0.5
 25
0.5
 16
0.0
 26
0.0
 36
1.0
 17
0.0
 27
0.0
 37
0.0
 42
50.0
 43
0.0
 44
0.0
 45
26.4349508106
 50
0.0
 51
0.0
 72
   100
 90
   557152
  1

281
     0
 71
     1
 74
     0
110
0.0
120
0.0
130
0.0
111
1.0
121
0.0
131
0.0
112
0.0
122
1.0
132
0.0
 79
     0
146
0.0
  0
MTEXT
  5
189
330
F7
100
AcDbEntity
  8
0
  6
Continuous
 62
     7
100
AcDbMText
 10
-3.5750156112
 20
2.0122913814
 30
0.0
 40
0.1903
 41
0.0
 71
     1
 72
     1
  1
SOLIDWORKS Educational Product.
  7
SLDTEXTSTYLE0
 73
     1
 44
1.0
  0
MTEXT
  5
18A
330
F7
100
AcDbEntity
  8
0
  6
Continuous
 62
     7
100
AcDbMText
 10
-3.5750156112
 20
1.7268413814
 30
0.0
 40
0.1903
 41
0.0
 71
     1
 72
     1
  1
For Instructional Use Only.
  7
SLDTEXTSTYLE0
 73
     1
 44
1.0
  0
ENDBLK
  5
FA
330
F7
100
AcDbEntity
  8
0
100
AcDbBlockEnd
  0
BLOCK
  5
120
330
11E
100
AcDbEntity
  8
0
100
AcDbBlockBegin
  2
*Paper_Space5
 70
     0
 10
0.0
 20
0.0
 30
0.0
  3
*Paper_Space5
  1

  0
SPLINE
  5
126
330
11E
100
AcDbEntity
  8
0
  6
Continuous
 62
     7
370
    25
100
AcDbSpline
210
0.0
220
0.0
230
1.0
 70
     8
 71
     3
 72
    27
 73
    23
 74
     0
 42
0.000000001
 43
0.00000001
 40
0.0005081730029742
 40
0.0005081730029742
 40
0.0005081730029742
 40
0.0005081730029742
 40
0.0160981610015676
 40
0.0316881490001608
 40
0.0628681249973473
 40
0.0940481009945338
 40
0.1252280769917202
 40
0.1875880289860932
 40
0.2499479809804662
 40
0.3123079329748393
 40
0.3746678849692122
 40
0.4993877889579582
 40
0.6241076929467042
 40
0.6864676449410771
 40
0.7488275969354502
 40
0.8111875489298231
 40
0.8735475009241962
 40
0.9047274769213827
 40
0.9359074529185691
 40
0.9670874289157556
 40
0.9826774169143488
 40
0.9982674049129422
 40
0.9982674049129422
 40
0.9982674049129422
 40
0.9982674049129422
 10
-0.3500215416975631
 20
26.76608456080183
 30
0.0
 10
-0.315904671909083
 20
26.75562575146207
 30
0.0
 10
-0.2473010732122507
 20
26.73421298876902
 30
0.0
 10
-0.1132355520408576
 20
26.69082839850888
 30
0.0
 10
0.0505750236642253
 20
26.63490931852839
 30
0.0
 10
0.2404252002635775
 20
26.56535031838975
 30
0.0
 10
0.4848062135014438
 20
26.46931818507315
 30
0.0
 10
0.7737162241732636
 20
26.3432706481533
 30
0.0
 10
1.093843096219941
 20
26.18283603923293
 30
0.0
 10
1.38740191233136
 20
26.01373292864885
 30
0.0
 10
1.743662764779615
 20
25.77737007142081
 30
0.0
 10
2.123939358507408
 20
25.46276338842936
 30
0.0
 10
2.423299248412561
 20
25.12357771370122
 30
0.0
 10
2.619196892458915
 20
24.83447444981506
 30
0.0
 10
2.745276569714816
 20
24.60734826119656
 30
0.0
 10
2.85105430803366
 20
24.36852324739302
 30
0.0
 10
2.922323210455492
 20
24.15869138539798
 30
0.0
 10
2.969033022321226
 20
23.98386761142243
 30
0.0
 10
2.998836824475432
 20
23.84922800254873
 30
0.0
 10
3.019264023615127
 20
23.73393936563743
 30
0.0
 10
3.032890993582961
 20
23.64007908696294
 30
0.0
 10
3.038839098357473
 20
23.59219566232373
 30
0.0
 10
3.041547633068394
 20
23.56843145976888
 30
0.0
  0
SPLINE
  5
127
330
11E
100
AcDbEntity
  8
0
  6
Continuous
 62
     7
370
    25
100
AcDbSpline
210
0.0
220
0.0
230
1.0
 70
     8
 71
     3
 72
    27
 73
    23
 74
     0
 42
0.000000001
 43
0.00000001
 40
0.0005081730030283
 40
0.0005081730030283
 40
0.0005081730030283
 40
0.0005081730030283
 40
0.0160981610016207
 40
0.0316881490002131
 40
0.0628681249973979
 40
0.0940481009945827
 40
0.1252280769917675
 40
0.1875880289861371
 40
0.2499479809805067
 40
0.3123079329748764
 40
0.374667884969246
 40
0.4993877889579852
 40
0.6241076929467245
 40
0.6864676449410941
 40
0.7488275969354637
 40
0.8111875489298334
 40
0.873547500924203
 40
0.9047274769213878
 40
0.9359074529185726
 40
0.9670874289157574
 40
0.9826774169143497
 40
0.9982674049129422
 40
0.9982674049129422
 40
0.9982674049129422
 40
0.9982674049129422
 10
-3.74159071646346
 20
25.41194311809845
 30
0.0
 10
-3.738882181752537
 20
25.43423507725818
 30
0.0
 10
-3.732934076978022
 20
25.47888536704691
 30
0.0
 10
-3.719307107010182
 20
25.56533860882816
 30
0.0
 10
-3.698879907870482
 20
25.66952389569098
 30
0.0
 10
-3.669076105716268
 20
25.78796343495009
 30
0.0
 10
-3.622366293850528
 20
25.9373977569358
 30
0.0
 10
-3.551097391428688
 20
26.10849089779002
 30
0.0
 10
-3.445319653109834
 20
26.28981966612893
 30
0.0
 10
-3.319239975853926
 20
26.44841434531249
 30
0.0
 10
-3.123342331807565
 20
26.63103604505254
 30
0.0
 10
-2.823982441902412
 20
26.80750251264127
 30
0.0
 10
-2.443705848174622
 20
26.91540713596576
 30
0.0
 10
-2.087444995726377
 20
26.95812186129627
 30
0.0
 10
-1.793886179614966
 20
26.96765897985126
 30
0.0
 10
-1.473759307568302
 20
26.95408634010532
 30
0.0
 10
-1.184849296896493
 20
26.92309477640933
 30
0.0
 10
-0.9404682836586402
 20
26.88629186383324
 30
0.0
 10
-0.7506181070592969
 20
26.8526564439669
 30
0.0
 10
-0.5868075313542217
 20
26.81953511506619
 30
0.0
 10
-0.4527420101828376
 20
26.79004743337084
 30
0.0
 10
-0.3841384114860083
 20
26.7741702198069
 30
0.0
 10
-0.3500215416975298
 20
26.76608456080182
 30
0.0
  0
SPLINE
  5
12B
330
11E
100
AcDbEntity
  8
0
  6
Continuous
 62
     7
370
    25
100
AcDbSpline
210
0.0
220
0.0
230
1.0
 70
     8
 71
     3
 72
     8
 73
     4
 74
     0
 42
0.000000001
 43
0.00000001
 40
0.0
 40
0.0
 40
0.0
 40
0.0
 40
1.0
 40
1.0
 40
1.0
 40
1.0
 10
-0.3500215416975467
 20
27.08772186736508
 30
0.0
 10
-2.640120468424557
 20
27.63329410343728
 30
0.0
 10
-3.880581658250649
 20
27.11588622174627
 30
0.0
 10
-4.07140511117582
 20
25.53549822229207
 30
0.0
  0
SPLINE
  5
12C
330
11E
100
AcDbEntity
  8
0
  6
Continuous
 62
     7
370
    25
100
AcDbSpline
210
0.0
220
0.0
230
1.0
 70
     8
 71
     3
 72
     8
 73
     4
 74
     0
 42
0.000000001
 43
0.00000001
 40
0.0
 40
0.0
 40
0.0
 40
0.0
 40
1.0
 40
1.0
 40
1.0
 40
1.0
 10
3.371362027780726
 20
23.51271359313237
 30
0.0
 10
3.180538574855555
 20
25.19682504389269
 30
0.0
 10
1.940077385029464
 20
26.38849446863694
 30
0.0
 10
-0.3500215416975467
 20
27.08772186736508
 30
0.0
  0
SPLINE
  5
12F
330
11E
100
AcDbEntity
  8
0
  6
Continuous
 62
     7
370
    25
100
AcDbSpline
210
0.0
220
0.0
230
1.0
 70
     8
 71
     3
 72
     8
 73
     4
 74
     0
 42
0.000000001
 43
0.00000001
 40
0.0
 40
0.0
 40
0.0
 40
0.0
 40
1.0
 40
1.0
 40
1.0
 40
1.0
 10
3.721383569478273
 20
23.85434534823558
 30
0.0
 10
3.530560116553103
 20
25.5384567989959
 30
0.0
 10
2.290098926727011
 20
26.73012622374014
 30
0.0
 10
0.0
 20
27.42935362246828
 30
0.0
  0
SPLINE
  5
132
330
11E
100
AcDbEntity
  8
0
  6
Continuous
 62
     7
370
    25
100
AcDbSpline
210
0.0
220
0.0
230
1.0
 70
     8
 71
     3
 72
    17
 73
    13
 74
     0
 42
0.000000001
 43
0.00000001
 40
0.0
 40
0.0
 40
0.0
 40
0.0
 40
0.132593372196083
 40
0.2570485393981232
 40
0.3738437217630777
 40
0.4835573503214963
 40
0.5868868506912486
 40
0.6846663510442714
 40
0.7778790938390618
 40
0.8676584892301261
 40
0.9594063928374995
 40
1.0
 40
1.0
 40
1.0
 40
1.0
 10
0.0
 20
27.42935362246828
 30
0.0
 10
-0.1553076113017802
 20
27.46421164585915
 30
0.0
 10
-0.4563904933593904
 20
27.53178820606366
 30
0.0
 10
-0.8919166339200938
 20
27.59929812083595
 30
0.0
 10
-1.296865105790161
 20
27.63703514976805
 30
0.0
 10
-1.671191011571052
 20
27.6431184996447
 30
0.0
 10
-2.014980972578282
 20
27.6179625127313
 30
0.0
 10
-2.328004118622588
 20
27.56113409436373
 30
0.0
 10
-2.610885088050632
 20
27.47323092529783
 30
0.0
 10
-2.864816513496575
 20
27.34974498697677
 30
0.0
 10
-3.054456217754192
 20
27.22606568416353
 30
0.0
 10
-3.146625649095796
 20
27.1299866752172
 30
0.0
 10
-3.174897123907491
 20
27.10051600102708
 30
0.0
  0
SPLINE
  5
134
330
11E
100
AcDbEntity
  8
0
  6
Continuous
 62
     7
370
    25
100
AcDbSpline
210
0.0
220
0.0
230
1.0
 70
     8
 71
     3
 72
    11
 73
     7
 74
     0
 42
0.000000001
 43
0.00000001
 40
0.0
 40
0.0
 40
0.0
 40
0.0
 40
0.3317034451737195
 40
0.6399793295574149
 40
0.931129482950313
 40
1.0
 40
1.0
 40
1.0
 40
1.0
 10
-3.391569174765913
 20
25.75357487320166
 30
0.0
 10
-3.374861514988204
 20
25.86300914628826
 30
0.0
 10
-3.34262622452442
 20
26.0741485653675
 30
0.0
 10
-3.244241101369434
 20
26.35602005994706
 30
0.0
 10
-3.154190006693221
 20
26.54788350369039
 30
0.0
 10
-3.084217699202509
 20
26.63362562704852
 30
0.0
 10
-3.070832276109659
 20
26.65002775296356
 30
0.0
  0
LINE
  5
137
330
11E
100
AcDbEntity
  8
0
  6
Continuous
 62
     7
370
    25
100
AcDbLine
 10
-3.1790803058
 20
27.1047557159
 30
0.0
 11
-3.5291018475
 21
26.7631239608
 31
0.0
  0
LINE
  5
138
330
11E
100
AcDbEntity
  8
0
  6
Continuous
 62
     7
370
    25
100
AcDbLine
 10
5.3671969504
 20
3.3505646486
 30
0.0
 11
3.3713620278
 21
23.5127135931
 31
0.0
  0
LINE
  5
139
330
11E
100
AcDbEntity
  8
0
  6
Continuous
 62
     7
370
    25
100
AcDbLine
 10
5.0371403988
 20
3.4087288118
 30
0.0
 11
5.3671969504
 21
3.3505646486
 31
0.0
  0
LINE
  5
13A
330
11E
100
AcDbEntity
  8
0
  6
Continuous
 62
     7
370
    25
100
AcDbLine
 10
3.0415476331
 20
23.5684314598
 30
0.0
 11
5.0371403988
 21
3.4087288118
 31
0.0
  0
LINE
  5
13B
330
11E
100
AcDbEntity
  8
0
  6
Continuous
 62
     7
370
    25
100
AcDbLine
 10
-3.828123991
 20
24.5848100228
 30
0.0
 11
-3.7415907165
 21
25.4119431181
 31
0.0
  0
LINE
  5
13C
330
11E
100
AcDbEntity
  8
0
  6
Continuous
 62
     7
370
    25
100
AcDbLine
 10
-4.1581805426
 20
24.7060504566
 30
0.0
 11
-3.828123991
 21
24.5848100228
 31
0.0
  0
LINE
  5
13D
330
11E
100
AcDbEntity
  8
0
  6
Continuous
 62
     7
370
    25
100
AcDbLine
 10
-4.0714051112
 20
25.5354982223
 30
0.0
 11
-4.1581805426
 21
24.7060504566
 31
0.0
  0
LINE
  5
13E
330
11E
100
AcDbEntity
  8
0
  6
Continuous
 62
     7
370
    25
100
AcDbLine
 10
3.3713620278
 20
23.5127135931
 30
0.0
 11
3.7213835695
 21
23.8543453482
 31
0.0
  0
LINE
  5
13F
330
11E
100
AcDbEntity
  8
0
  6
Continuous
 62
     7
370
    25
100
AcDbLine
 10
-0.3500215417
 20
27.0877218674
 30
0.0
 11
0.0
 21
27.4293536225
 31
0.0
  0
LINE
  5
140
330
11E
100
AcDbEntity
  8
0
  6
Continuous
 62
     7
370
    25
100
AcDbLine
 10
5.3671969504
 20
3.3505646486
 30
0.0
 11
5.7172184921
 21
3.6921964037
 31
0.0
  0
LINE
  5
141
330
11E
100
AcDbEntity
  8
0
  6
Continuous
 62
     7
370
    25
100
AcDbLine
 10
5.7172184921
 20
3.6921964037
 30
0.0
 11
3.7213835695
 21
23.8543453482
 31
0.0
  0
LINE
  5
142
330
11E
100
AcDbEntity
  8
0
  6
Continuous
 62
     7
370
    25
100
AcDbLine
 10
-3.7415907165
 20
25.4119431181
 30
0.0
 11
-3.3915691748
 21
25.7535748732
 31
0.0
  0
LINE
  5
143
330
11E
100
AcDbEntity
  8
0
  6
Continuous
 62
     7
370
    25
100
AcDbLine
 10
-3.828123991
 20
24.5848100228
 30
0.0
 11
-3.4781024493
 21
24.9264417779
 31
0.0
  0
LINE
  5
144
330
11E
100
AcDbEntity
  8
0
  6
Continuous
 62
     7
370
    25
100
AcDbLine
 10
-3.4781024493
 20
24.9264417779
 30
0.0
 11
-3.3915691748
 21
25.7535748732
 31
0.0
  0
VIEWPORT
  5
178
330
11E
100
AcDbEntity
  8
0
100
AcDbViewport
 10
0.0
 20
0.0
 30
0.0
 40
8.4
 41
6.4
 68
     1
 69
     1
 12
1.079274296
 22
19.0416907791
 13
0.0
 23
0.0
 14
0.5
 24
0.5
 15
0.5
 25
0.5
 16
0.0
 26
0.0
 36
1.0
 17
0.0
 27
0.0
 37
0.0
 42
50.0
 43
0.0
 44
0.0
 45
26.4349508106
 50
0.0
 51
0.0
 72
   100
 90
   557152
  1

281
     0
 71
     1
 74
     0
110
0.0
120
0.0
130
0.0
111
1.0
121
0.0
131
0.0
112
0.0
122
1.0
132
0.0
 79
     0
146
0.0
  0
MTEXT
  5
18B
330
11E
100
AcDbEntity
  8
0
  6
Continuous
 62
     7
100
AcDbMText
 10
-4.1581805426
 20
3.3104242395
 30
0.0
 40
0.1903
 41
0.0
 71
     1
 72
     1
  1
SOLIDWORKS Educational Product.
  7
SLDTEXTSTYLE0
 73
     1
 44
1.0
  0
MTEXT
  5
18C
330
11E
100
AcDbEntity
  8
0
  6
Continuous
 62
     7
100
AcDbMText
 10
-4.1581805426
 20
3.0249742395
 30
0.0
 40
0.1903
 41
0.0
 71
     1
 72
     1
  1
For Instructional Use Only.
  7
SLDTEXTSTYLE0
 73
     1
 44
1.0
  0
ENDBLK
  5
121
330
11E
100
AcDbEntity
  8
0
100
AcDbBlockEnd
  0
BLOCK
  5
147
330
145
100
AcDbEntity
  8
0
100
AcDbBlockBegin
  2
*Paper_Space6
 70
     0
 10
0.0
 20
0.0
 30
0.0
  3
*Paper_Space6
  1

  0
SPLINE
  5
14D
330
145
100
AcDbEntity
  8
0
  6
Continuous
 62
     7
370
    25
100
AcDbSpline
210
0.0
220
0.0
230
1.0
 70
     8
 71
     3
 72
    27
 73
    23
 74
     0
 42
0.000000001
 43
0.00000001
 40
0.0005081730029742
 40
0.0005081730029742
 40
0.0005081730029742
 40
0.0005081730029742
 40
0.0160981610015676
 40
0.0316881490001608
 40
0.0628681249973473
 40
0.0940481009945338
 40
0.1252280769917202
 40
0.1875880289860932
 40
0.2499479809804662
 40
0.3123079329748393
 40
0.3746678849692122
 40
0.4993877889579582
 40
0.6241076929467042
 40
0.6864676449410771
 40
0.7488275969354502
 40
0.8111875489298231
 40
0.8735475009241962
 40
0.9047274769213827
 40
0.9359074529185691
 40
0.9670874289157556
 40
0.9826774169143488
 40
0.9982674049129422
 40
0.9982674049129422
 40
0.9982674049129422
 40
0.9982674049129422
 10
-0.265165042884142
 20
29.58226284607345
 30
0.0
 10
-0.2290809683008042
 20
29.57641155112104
 30
0.0
 10
-0.1565216336546416
 20
29.56422562434916
 30
0.0
 10
-0.0147257920374222
 20
29.53871833568144
 30
0.0
 10
0.1585302266984357
 20
29.50435236322179
 30
0.0
 10
0.3593273096237886
 20
29.45929791092616
 30
0.0
 10
0.6177995189178672
 20
29.39415999290747
 30
0.0
 10
0.9233683016810215
 20
29.30338531765119
 30
0.0
 10
1.261953933911663
 20
29.17995987870788
 30
0.0
 10
1.572439575790144
 20
29.04259805285559
 30
0.0
 10
1.949242701357283
 20
28.8416448584095
 30
0.0
 10
2.351446334206527
 20
28.55860922692178
 30
0.0
 10
2.668067544228697
 20
28.23513258161561
 30
0.0
 10
2.875260796197425
 20
27.94960058993354
 30
0.0
 10
3.008610324033689
 20
27.72067052368085
 30
0.0
 10
3.120487287612651
 20
27.47550914953019
 30
0.0
 10
3.195865609434261
 20
27.25652028465876
 30
0.0
 10
3.245268744762518
 20
27.0719683057173
 30
0.0
 10
3.276791056934385
 20
26.92881440650726
 30
0.0
 10
3.298396103993372
 20
26.80539136868039
 30
0.0
 10
3.312808815467573
 20
26.70441098881662
 30
0.0
 10
3.319099892510798
 20
26.65272889232479
 30
0.0
 10
3.321964603403865
 20
26.62703909834273
 30
0.0
  0
SPLINE
  5
14E
330
145
100
AcDbEntity
  8
0
  6
Continuous
 62
     7
370
    25
100
AcDbSpline
210
0.0
220
0.0
230
1.0
 70
     8
 71
     3
 72
    27
 73
    23
 74
     0
 42
0.000000001
 43
0.00000001
 40
0.0005081730030283
 40
0.0005081730030283
 40
0.0005081730030283
 40
0.0005081730030283
 40
0.0160981610016207
 40
0.0316881490002131
 40
0.0628681249973979
 40
0.0940481009945827
 40
0.1252280769917675
 40
0.1875880289861371
 40
0.2499479809805067
 40
0.3123079329748764
 40
0.374667884969246
 40
0.4993877889579852
 40
0.6241076929467245
 40
0.6864676449410941
 40
0.7488275969354637
 40
0.8111875489298334
 40
0.873547500924203
 40
0.9047274769213878
 40
0.9359074529185726
 40
0.9670874289157574
 40
0.9826774169143497
 40
0.9982674049129422
 40
0.9982674049129422
 40
0.9982674049129422
 40
0.9982674049129422
 10
-3.852294689172086
 20
27.53091080880764
 30
0.0
 10
-3.849429978279016
 20
27.5558787634947
 30
0.0
 10
-3.843138901235788
 20
27.60597565757445
 30
0.0
 10
-3.828726189761582
 20
27.7033243755087
 30
0.0
 10
-3.807121142702589
 20
27.82130345318762
 30
0.0
 10
-3.775598830530713
 20
27.95651447632956
 30
0.0
 10
-3.726195695202449
 20
28.128618035271
 30
0.0
 10
-3.65081737338083
 20
28.32861334836281
 30
0.0
 10
-3.538940409801858
 20
28.54558437747355
 30
0.0
 10
-3.405590881965588
 20
28.74091352106658
 30
0.0
 10
-3.198397629996852
 20
28.97423772058044
 30
0.0
 10
-2.881776419974683
 20
29.21793332006678
 30
0.0
 10
-2.479572787125441
 20
29.39962316218364
 30
0.0
 10
-2.102769661558312
 20
29.5056308934884
 30
0.0
 10
-1.792284019679839
 20
29.56475769137345
 30
0.0
 10
-1.453698387449213
 20
29.60286757032305
 30
0.0
 10
-1.14812960468607
 20
29.61664614965439
 30
0.0
 10
-0.8896573953920051
 20
29.6166551927901
 30
0.0
 10
-0.6888603124666619
 20
29.61111353602459
 30
0.0
 10
-0.515604293730812
 20
29.60182309529461
 30
0.0
 10
-0.3738084521136024
 20
29.59160119027904
 30
0.0
 10
-0.3012491174674428
 20
29.58550388327243
 30
0.0
 10
-0.2651650428841067
 20
29.58226284607344
 30
0.0
  0
SPLINE
  5
152
330
145
100
AcDbEntity
  8
0
  6
Continuous
 62
     7
370
    25
100
AcDbSpline
210
0.0
220
0.0
230
1.0
 70
     8
 71
     3
 72
     8
 73
     4
 74
     0
 42
0.000000001
 43
0.00000001
 40
0.0
 40
0.0
 40
0.0
 40
0.0
 40
1.0
 40
1.0
 40
1.0
 40
1.0
 10
-0.2651650428841245
 20
29.93603574489793
 30
0.0
 10
-2.687312824540883
 20
30.15669406314963
 30
0.0
 10
-3.999299954923365
 20
29.38207114516625
 30
0.0
 10
-4.201126434031567
 20
27.61216699094784
 30
0.0
  0
SPLINE
  5
153
330
145
100
AcDbEntity
  8
0
  6
Continuous
 62
     7
370
    25
100
AcDbSpline
210
0.0
220
0.0
230
1.0
 70
     8
 71
     3
 72
     8
 73
     4
 74
     0
 42
0.000000001
 43
0.00000001
 40
0.0
 40
0.0
 40
0.0
 40
0.0
 40
1.0
 40
1.0
 40
1.0
 40
1.0
 10
3.670796348263318
 20
26.62039794278403
 30
0.0
 10
3.468969869155116
 20
28.44115758952063
 30
0.0
 10
2.156982738772634
 20
29.54637019022527
 30
0.0
 10
-0.2651650428841245
 20
29.93603574489793
 30
0.0
  0
SPLINE
  5
156
330
145
100
AcDbEntity
  8
0
  6
Continuous
 62
     7
370
    25
100
AcDbSpline
210
0.0
220
0.0
230
1.0
 70
     8
 71
     3
 72
     8
 73
     4
 74
     0
 42
0.000000001
 43
0.00000001
 40
0.0
 40
0.0
 40
0.0
 40
0.0
 40
1.0
 40
1.0
 40
1.0
 40
1.0
 10
3.935961391147443
 20
26.85425152940943
 30
0.0
 10
3.734134912039241
 20
28.67501117614603
 30
0.0
 10
2.422147781656759
 20
29.78022377685066
 30
0.0
 10
0.0
 20
30.16988933152332
 30
0.0
  0
SPLINE
  5
159
330
145
100
AcDbEntity
  8
0
  6
Continuous
 62
     7
370
    25
100
AcDbSpline
210
0.0
220
0.0
230
1.0
 70
     8
 71
     3
 72
    16
 73
    12
 74
     0
 42
0.000000001
 43
0.00000001
 40
0.0
 40
0.0
 40
0.0
 40
0.0
 40
0.1450747844556758
 40
0.2812452902448366
 40
0.4090347538237535
 40
0.5290760556727222
 40
0.6421322721771647
 40
0.7491160504984579
 40
0.8511031886600745
 40
0.9493337881176265
 40
1.0
 40
1.0
 40
1.0
 40
1.0
 10
0.0
 20
30.16988933152333
 30
0.0
 10
-0.1642624953961117
 20
30.18249846273659
 30
0.0
 10
-0.4827055202632986
 20
30.20694281246363
 30
0.0
 10
-0.9433481176549289
 20
30.20904384038962
 30
0.0
 10
-1.371633484932134
 20
30.18344573450541
 30
0.0
 10
-1.767586712207114
 20
30.1281652800346
 30
0.0
 10
-2.13105158313305
 20
30.04337732632019
 30
0.0
 10
-2.462634203519813
 20
29.92955822828938
 30
0.0
 10
-2.760049930686538
 20
29.78409427379833
 30
0.0
 10
-2.989524884406155
 20
29.64134640068394
 30
0.0
 10
-3.106734486277329
 20
29.533539531964
 30
0.0
 10
-3.146618258600003
 20
29.49685529672897
 30
0.0
  0
SPLINE
  5
15B
330
145
100
AcDbEntity
  8
0
  6
Continuous
 62
     7
370
    25
100
AcDbSpline
210
0.0
220
0.0
230
1.0
 70
     8
 71
     3
 72
    12
 73
     8
 74
     0
 42
0.000000001
 43
0.00000001
 40
0.0
 40
0.0
 40
0.0
 40
0.0
 40
0.2468922686540981
 40
0.4763470228155396
 40
0.6930548168889924
 40
0.9026647684784799
 40
1.0
 40
1.0
 40
1.0
 40
1.0
 10
-3.587129646287961
 20
27.76476439543303
 30
0.0
 10
-3.569217248094947
 20
27.88771426752477
 30
0.0
 10
-3.534657569101178
 20
28.12493030448582
 30
0.0
 10
-3.433843579873302
 20
28.45376979903967
 30
0.0
 10
-3.296919728376277
 20
28.74287883250042
 30
0.0
 10
-3.159545999292269
 20
28.95739262469903
 30
0.0
 10
-3.055811765011065
 20
29.06182854537381
 30
0.0
 10
-3.022916654528693
 20
29.09494616727298
 30
0.0
  0
LINE
  5
15E
330
145
100
AcDbEntity
  8
0
  6
Continuous
 62
     7
370
    25
100
AcDbLine
 10
-3.1505670514
 20
29.5013354467
 30
0.0
 11
-3.4157320942
 21
29.2674818601
 31
0.0
  0
LINE
  5
15F
330
145
100
AcDbEntity
  8
0
  6
Continuous
 62
     7
370
    25
100
AcDbLine
 10
5.7817126384
 20
4.7744677614
 30
0.0
 11
3.6707963483
 21
26.6203979428
 31
0.0
  0
LINE
  5
160
330
145
100
AcDbEntity
  8
0
  6
Continuous
 62
     7
370
    25
100
AcDbLine
 10
5.4326247736
 20
4.7837595086
 30
0.0
 11
5.7817126384
 21
4.7744677614
 31
0.0
  0
LINE
  5
161
330
145
100
AcDbEntity
  8
0
  6
Continuous
 62
     7
370
    25
100
AcDbLine
 10
3.3219646034
 20
26.6270390983
 30
0.0
 11
5.4326247736
 21
4.7837595086
 31
0.0
  0
LINE
  5
162
330
145
100
AcDbEntity
  8
0
  6
Continuous
 62
     7
370
    25
100
AcDbLine
 10
-3.9438175384
 20
26.6067999394
 30
0.0
 11
-3.8522946892
 21
27.5309108088
 31
0.0
  0
LINE
  5
163
330
145
100
AcDbEntity
  8
0
  6
Continuous
 62
     7
370
    25
100
AcDbLine
 10
-4.2929054032
 20
26.685470066
 30
0.0
 11
-3.9438175384
 21
26.6067999394
 31
0.0
  0
LINE
  5
164
330
145
100
AcDbEntity
  8
0
  6
Continuous
 62
     7
370
    25
100
AcDbLine
 10
-4.201126434
 20
27.6121669909
 30
0.0
 11
-4.2929054032
 21
26.685470066
 31
0.0
  0
LINE
  5
165
330
145
100
AcDbEntity
  8
0
  6
Continuous
 62
     7
370
    25
100
AcDbLine
 10
3.6707963483
 20
26.6203979428
 30
0.0
 11
3.9359613911
 21
26.8542515294
 31
0.0
  0
LINE
  5
166
330
145
100
AcDbEntity
  8
0
  6
Continuous
 62
     7
370
    25
100
AcDbLine
 10
-0.2651650429
 20
29.9360357449
 30
0.0
 11
0.0
 21
30.1698893315
 31
0.0
  0
LINE
  5
167
330
145
100
AcDbEntity
  8
0
  6
Continuous
 62
     7
370
    25
100
AcDbLine
 10
5.7817126384
 20
4.7744677614
 30
0.0
 11
6.0468776813
 21
5.0083213481
 31
0.0
  0
LINE
  5
168
330
145
100
AcDbEntity
  8
0
  6
Continuous
 62
     7
370
    25
100
AcDbLine
 10
6.0468776813
 20
5.0083213481
 30
0.0
 11
3.9359613911
 21
26.8542515294
 31
0.0
  0
LINE
  5
169
330
145
100
AcDbEntity
  8
0
  6
Continuous
 62
     7
370
    25
100
AcDbLine
 10
-3.8522946892
 20
27.5309108088
 30
0.0
 11
-3.5871296463
 21
27.7647643954
 31
0.0
  0
LINE
  5
16A
330
145
100
AcDbEntity
  8
0
  6
Continuous
 62
     7
370
    25
100
AcDbLine
 10
-3.9438175384
 20
26.6067999394
 30
0.0
 11
-3.6786524955
 21
26.840653526
 31
0.0
  0
LINE
  5
16B
330
145
100
AcDbEntity
  8
0
  6
Continuous
 62
     7
370
    25
100
AcDbLine
 10
-3.6786524955
 20
26.840653526
 30
0.0
 11
-3.5871296463
 21
27.7647643954
 31
0.0
  0
VIEWPORT
  5
17A
330
145
100
AcDbEntity
  8
0
100
AcDbViewport
 10
0.0
 20
0.0
 30
0.0
 40
8.4
 41
6.4
 68
     1
 69
     1
 12
1.079274296
 22
19.0416907791
 13
0.0
 23
0.0
 14
0.5
 24
0.5
 15
0.5
 25
0.5
 16
0.0
 26
0.0
 36
1.0
 17
0.0
 27
0.0
 37
0.0
 42
50.0
 43
0.0
 44
0.0
 45
26.4349508106
 50
0.0
 51
0.0
 72
   100
 90
   557152
  1

281
     0
 71
     1
 74
     0
110
0.0
120
0.0
130
0.0
111
1.0
121
0.0
131
0.0
112
0.0
122
1.0
132
0.0
 79
     0
146
0.0
  0
MTEXT
  5
18D
330
145
100
AcDbEntity
  8
0
  6
Continuous
 62
     7
100
AcDbMText
 10
-4.2929054032
 20
4.7343273523
 30
0.0
 40
0.1903
 41
0.0
 71
     1
 72
     1
  1
SOLIDWORKS Educational Product.
  7
SLDTEXTSTYLE0
 73
     1
 44
1.0
  0
MTEXT
  5
18E
330
145
100
AcDbEntity
  8
0
  6
Continuous
 62
     7
100
AcDbMText
 10
-4.2929054032
 20
4.4488773523
 30
0.0
 40
0.1903
 41
0.0
 71
     1
 72
     1
  1
For Instructional Use Only.
  7
SLDTEXTSTYLE0
 73
     1
 44
1.0
  0
ENDBLK
  5
148
330
145
100
AcDbEntity
  8
0
100
AcDbBlockEnd
  0
ENDSEC
  0
SECTION
  2
ENTITIES
  0
SPLINE
  5
76
330
1F
100
AcDbEntity
  8
0
  6
Continuous
 62
     7
370
    25
100
AcDbSpline
210
0.0
220
0.0
230
1.0
 70
     8
 71
     3
 72
    27
 73
    23
 74
     0
 42
0.000000001
 43
0.00000001
 40
0.0005081730029742
 40
0.0005081730029742
 40
0.0005081730029742
 40
0.0005081730029742
 40
0.0160981610015676
 40
0.0316881490001608
 40
0.0628681249973473
 40
0.0940481009945338
 40
0.1252280769917202
 40
0.1875880289860932
 40
0.2499479809804662
 40
0.3123079329748393
 40
0.3746678849692122
 40
0.4993877889579582
 40
0.6241076929467042
 40
0.6864676449410771
 40
0.7488275969354502
 40
0.8111875489298231
 40
0.8735475009241962
 40
0.9047274769213827
 40
0.9359074529185691
 40
0.9670874289157556
 40
0.9826774169143488
 40
0.9982674049129422
 40
0.9982674049129422
 40
0.9982674049129422
 40
0.9982674049129422
 10
-0.0000000000000186
 20
31.62476717637293
 30
0.0
 10
0.0385754983443309
 20
31.62338287815441
 30
0.0
 10
0.1161446899012792
 20
31.62015389991143
 30
0.0
 10
0.2677308208108533
 20
31.61204760108657
 30
0.0
 10
0.4529492957493738
 20
31.59874929219103
 30
0.0
 10
0.6676104067624262
 20
31.57779446794443
 30
0.0
 10
0.9439288213765048
 20
31.54324507444098
 30
0.0
 10
1.270595590849593
 20
31.48779733795709
 30
0.0
 10
1.632558857092389
 20
31.40213029894724
 30
0.0
 10
1.964481970059187
 20
31.29792647024732
 30
0.0
 10
2.367301455228213
 20
31.13513585613387
 30
0.0
 10
2.797275224882033
 20
30.88867795580922
 30
0.0
 10
3.135757536096299
 20
30.58788945052298
 30
0.0
 10
3.357256439437184
 20
30.3127244020897
 30
0.0
 10
3.499813081104334
 20
30.08772697889931
 30
0.0
 10
3.619414586010431
 20
29.84264426179245
 30
0.0
 10
3.699997401621062
 20
29.62044434671329
 30
0.0
 10
3.752811574828122
 20
29.43129918468036
 30
0.0
 10
3.786510344023035
 20
29.28367389150507
 30
0.0
 10
3.809607110856523
 20
29.15565108685868
 30
0.0
 10
3.825014947527699
 20
29.05047119939211
 30
0.0
 10
3.831740391781635
 20
28.99649473858209
 30
0.0
 10
3.83480289654554
 20
28.96962941038021
 30
0.0
  0
SPLINE
  5
77
330
1F
100
AcDbEntity
  8
0
  6
Continuous
 62
     7
370
    25
100
AcDbSpline
210
0.0
220
0.0
230
1.0
 70
     8
 71
     3
 72
    27
 73
    23
 74
     0
 42
0.000000001
 43
0.00000001
 40
0.0005081730030283
 40
0.0005081730030283
 40
0.0005081730030283
 40
0.0005081730030283
 40
0.0160981610016207
 40
0.0316881490002131
 40
0.0628681249973979
 40
0.0940481009945827
 40
0.1252280769917675
 40
0.1875880289861371
 40
0.2499479809805067
 40
0.3123079329748764
 40
0.374667884969246
 40
0.4993877889579852
 40
0.6241076929467245
 40
0.6864676449410941
 40
0.7488275969354637
 40
0.8111875489298334
 40
0.873547500924203
 40
0.9047274769213878
 40
0.9359074529185726
 40
0.9670874289157574
 40
0.9826774169143497
 40
0.9982674049129422
 40
0.9982674049129422
 40
0.9982674049129422
 40
0.9982674049129422
 10
-3.834802896545508
 20
28.96962941038049
 30
0.0
 10
-3.831740391781601
 20
28.99649473858237
 30
0.0
 10
-3.825014947527662
 20
29.05047119939238
 30
0.0
 10
-3.80960711085648
 20
29.15565108685894
 30
0.0
 10
-3.786510344022985
 20
29.28367389150532
 30
0.0
 10
-3.752811574828063
 20
29.43129918468058
 30
0.0
 10
-3.699997401620997
 20
29.6204443467135
 30
0.0
 10
-3.619414586010356
 20
29.84264426179263
 30
0.0
 10
-3.499813081104247
 20
30.08772697889946
 30
0.0
 10
-3.357256439437092
 20
30.31272440208983
 30
0.0
 10
-3.135757536096198
 20
30.58788945052307
 30
0.0
 10
-2.797275224881933
 20
30.8886779558093
 30
0.0
 10
-2.367301455228116
 20
31.13513585613389
 30
0.0
 10
-1.964481970059101
 20
31.29792647024734
 30
0.0
 10
-1.632558857092311
 20
31.40213029894726
 30
0.0
 10
-1.270595590849531
 20
31.4877973379571
 30
0.0
 10
-0.9439288213764553
 20
31.54324507444096
 30
0.0
 10
-0.6676104067623916
 20
31.57779446794443
 30
0.0
 10
-0.4529492957493493
 20
31.59874929219104
 30
0.0
 10
-0.2677308208108373
 20
31.61204760108657
 30
0.0
 10
-0.1161446899012736
 20
31.62015389991143
 30
0.0
 10
-0.0385754983443286
 20
31.62338287815441
 30
0.0
 10
0.000000000000019
 20
31.62476717637293
 30
0.0
  0
SPLINE
  5
7B
330
1F
100
AcDbEntity
  8
0
  6
Continuous
 62
     7
370
    25
100
AcDbSpline
210
0.0
220
0.0
230
1.0
 70
     8
 71
     3
 72
     8
 73
     4
 74
     0
 42
0.000000001
 43
0.00000001
 40
0.0
 40
0.0
 40
0.0
 40
0.0
 40
1.0
 40
1.0
 40
1.0
 40
1.0
 10
0.0
 20
32.0
 30
0.0
 10
-2.589384896799176
 20
31.91037037779552
 30
0.0
 10
-3.99195813610977
 20
30.91343704574044
 30
0.0
 10
-4.20771971793178
 20
29.00920000383482
 30
0.0
  0
SPLINE
  5
7C
330
1F
100
AcDbEntity
  8
0
  6
Continuous
 62
     7
370
    25
100
AcDbSpline
210
0.0
220
0.0
230
1.0
 70
     8
 71
     3
 72
     8
 73
     4
 74
     0
 42
0.000000001
 43
0.00000001
 40
0.0
 40
0.0
 40
0.0
 40
0.0
 40
1.0
 40
1.0
 40
1.0
 40
1.0
 10
4.20771971793178
 20
29.00920000383482
 30
0.0
 10
3.99195813610977
 20
30.91343704574044
 30
0.0
 10
2.589384896799176
 20
31.91037037779551
 30
0.0
 10
0.0
 20
32.0
 30
0.0
  0
LINE
  5
7D
330
1F
100
AcDbEntity
  8
0
  6
Continuous
 62
     7
370
    25
100
AcDbLine
 10
6.4643841549
 20
6.1201750002
 30
0.0
 11
4.2077197179
 21
29.0092000038
 31
0.0
  0
LINE
  5
7E
330
1F
100
AcDbEntity
  8
0
  6
Continuous
 62
     7
370
    25
100
AcDbLine
 10
6.0911935299
 20
6.0833815583
 30
0.0
 11
6.4643841549
 21
6.1201750002
 31
0.0
  0
LINE
  5
7F
330
1F
100
AcDbEntity
  8
0
  6
Continuous
 62
     7
370
    25
100
AcDbLine
 10
3.8348028965
 20
28.9696294104
 30
0.0
 11
6.0911935299
 21
6.0833815583
 31
0.0
  0
LINE
  5
80
330
1F
100
AcDbEntity
  8
0
  6
Continuous
 62
     7
370
    25
100
AcDbLine
 10
-3.932644938
 20
27.9772315618
 30
0.0
 11
-3.8348028965
 21
28.9696294104
 31
0.0
  0
LINE
  5
81
330
1F
100
AcDbEntity
  8
0
  6
Continuous
 62
     7
370
    25
100
AcDbLine
 10
-4.305835563
 20
28.0140250037
 30
0.0
 11
-3.932644938
 21
27.9772315618
 31
0.0
  0
LINE
  5
82
330
1F
100
AcDbEntity
  8
0
  6
Continuous
 62
     7
370
    25
100
AcDbLine
 10
-4.2077197179
 20
29.0092000038
 30
0.0
 11
-4.305835563
 21
28.0140250037
 31
0.0
  0
MTEXT
  5
17F
330
1F
100
AcDbEntity
  8
0
  6
Continuous
 62
     7
100
AcDbMText
 10
-4.305835563
 20
6.0432411491
 30
0.0
 40
0.1903
 41
0.0
 71
     1
 72
     1
  1
SOLIDWORKS Educational Product.
  7
SLDTEXTSTYLE0
 73
     1
 44
1.0
  0
MTEXT
  5
180
330
1F
100
AcDbEntity
  8
0
  6
Continuous
 62
     7
100
AcDbMText
 10
-4.305835563
 20
5.7577911491
 30
0.0
 40
0.1903
 41
0.0
 71
     1
 72
     1
  1
For Instructional Use Only.
  7
SLDTEXTSTYLE0
 73
     1
 44
1.0
  0
SPLINE
  5
84
330
1B
100
AcDbEntity
 67
     1
  8
0
  6
Continuous
 62
     7
370
    25
100
AcDbSpline
210
0.0
220
0.0
230
1.0
 70
    24
 71
     3
 72
     8
 73
     4
 74
     0
 42
0.000000001
 43
0.00000001
 40
0.0
 40
0.0
 40
0.0
 40
0.0
 40
1.0
 40
1.0
 40
1.0
 40
1.0
 10
4.20771971793178
 20
-0.7500000000000001
 30
0.0
 10
3.99195813610977
 20
-0.7500000000000001
 30
0.0
 10
2.589384896799176
 20
-0.7500000000000001
 30
0.0
 10
0.0
 20
-0.7500000000000001
 30
0.0
  0
SPLINE
  5
86
330
1B
100
AcDbEntity
 67
     1
  8
0
  6
Continuous
 62
     7
370
    25
100
AcDbSpline
210
0.0
220
0.0
230
1.0
 70
    24
 71
     3
 72
     8
 73
     4
 74
     0
 42
0.000000001
 43
0.00000001
 40
0.0
 40
0.0
 40
0.0
 40
0.0
 40
1.0
 40
1.0
 40
1.0
 40
1.0
 10
4.20771971793178
 20
0.0
 30
0.0
 10
3.99195813610977
 20
0.0
 30
0.0
 10
2.589384896799176
 20
0.0
 30
0.0
 10
0.0
 20
0.0
 30
0.0
  0
SPLINE
  5
87
330
1B
100
AcDbEntity
 67
     1
  8
0
  6
Continuous
 62
     7
370
    25
100
AcDbSpline
210
0.0
220
0.0
230
1.0
 70
    24
 71
     3
 72
     8
 73
     4
 74
     0
 42
0.000000001
 43
0.00000001
 40
0.0
 40
0.0
 40
0.0
 40
0.0
 40
1.0
 40
1.0
 40
1.0
 40
1.0
 10
0.0
 20
-0.7500000000000001
 30
0.0
 10
-2.589384896799176
 20
-0.7500000000000001
 30
0.0
 10
-3.99195813610977
 20
-0.7500000000000001
 30
0.0
 10
-4.20771971793178
 20
-0.7500000000000001
 30
0.0
  0
SPLINE
  5
89
330
1B
100
AcDbEntity
 67
     1
  8
0
  6
Continuous
 62
     7
370
    25
100
AcDbSpline
210
0.0
220
0.0
230
1.0
 70
    24
 71
     3
 72
     8
 73
     4
 74
     0
 42
0.000000001
 43
0.00000001
 40
0.0
 40
0.0
 40
0.0
 40
0.0
 40
1.0
 40
1.0
 40
1.0
 40
1.0
 10
0.0
 20
0.0
 30
0.0
 10
-2.589384896799176
 20
0.0
 30
0.0
 10
-3.99195813610977
 20
0.0
 30
0.0
 10
-4.20771971793178
 20
0.0
 30
0.0
  0
LINE
  5
90
330
1B
100
AcDbEntity
 67
     1
  8
0
  6
Continuous
 62
     7
370
    25
100
AcDbLine
 10
4.2077197179
 20
-0.75
 30
0.0
 11
4.2077197179
 21
0.0
 31
0.0
  0
LINE
  5
91
330
1B
100
AcDbEntity
 67
     1
  8
0
  6
Continuous
 62
     7
370
    25
100
AcDbLine
 10
0.0
 20
-0.75
 30
0.0
 11
0.0
 21
0.0
 31
0.0
  0
LINE
  5
92
330
1B
100
AcDbEntity
 67
     1
  8
0
  6
Continuous
 62
     7
370
    25
100
AcDbLine
 10
-4.2077197179
 20
-0.75
 30
0.0
 11
-4.2077197179
 21
0.0
 31
0.0
  0
LINE
  5
93
330
1B
100
AcDbEntity
 67
     1
  8
0
  6
Continuous
 62
     7
370
    25
100
AcDbLine
 10
6.4643841549
 20
-0.75
 30
0.0
 11
6.4643841549
 21
0.0
 31
0.0
  0
LINE
  5
94
330
1B
100
AcDbEntity
 67
     1
  8
0
  6
Continuous
 62
     7
370
    25
100
AcDbLine
 10
6.4643841549
 20
-0.75
 30
0.0
 11
4.2077197179
 21
-0.75
 31
0.0
  0
LINE
  5
95
330
1B
100
AcDbEntity
 67
     1
  8
0
  6
Continuous
 62
     7
370
    25
100
AcDbLine
 10
6.4643841549
 20
0.0
 30
0.0
 11
4.2077197179
 21
0.0
 31
0.0
  0
LINE
  5
96
330
1B
100
AcDbEntity
 67
     1
  8
0
  6
Continuous
 62
     7
370
    25
100
AcDbLine
 10
-4.305835563
 20
-0.75
 30
0.0
 11
-4.305835563
 21
0.0
 31
0.0
  0
LINE
  5
97
330
1B
100
AcDbEntity
 67
     1
  8
0
  6
Continuous
 62
     7
370
    25
100
AcDbLine
 10
-4.2077197179
 20
-0.75
 30
0.0
 11
-4.305835563
 21
-0.75
 31
0.0
  0
LINE
  5
98
330
1B
100
AcDbEntity
 67
     1
  8
0
  6
Continuous
 62
     7
370
    25
100
AcDbLine
 10
-4.2077197179
 20
0.0
 30
0.0
 11
-4.305835563
 21
0.0
 31
0.0
  0
VIEWPORT
  5
16C
330
1B
100
AcDbEntity
 67
     1
  8
0
100
AcDbViewport
 10
0.0
 20
0.0
 30
0.0
 40
8.4
 41
6.4
 68
     1
 69
     1
 12
1.079274296
 22
19.0416907791
 13
0.0
 23
0.0
 14
0.5
 24
0.5
 15
0.5
 25
0.5
 16
0.0
 26
0.0
 36
1.0
 17
0.0
 27
0.0
 37
0.0
 42
50.0
 43
0.0
 44
0.0
 45
26.4349508106
 50
0.0
 51
0.0
 72
   100
 90
   557152
  1

281
     0
 71
     1
 74
     0
110
0.0
120
0.0
130
0.0
111
1.0
121
0.0
131
0.0
112
0.0
122
1.0
132
0.0
 79
     0
146
0.0
  0
MTEXT
  5
17D
330
1B
100
AcDbEntity
 67
     1
  8
0
  6
Continuous
 62
     7
100
AcDbMText
 10
-4.305835563
 20
-0.7901404091
 30
0.0
 40
0.1903
 41
0.0
 71
     1
 72
     1
  1
SOLIDWORKS Educational Product.
  7
SLDTEXTSTYLE0
 73
     1
 44
1.0
  0
MTEXT
  5
17E
330
1B
100
AcDbEntity
 67
     1
  8
0
  6
Continuous
 62
     7
100
AcDbMText
 10
-4.305835563
 20
-1.0755904091
 30
0.0
 40
0.1903
 41
0.0
 71
     1
 72
     1
  1
For Instructional Use Only.
  7
SLDTEXTSTYLE0
 73
     1
 44
1.0
  0
ENDSEC
  0
SECTION
  2
OBJECTS
  0
DICTIONARY
  5
C
330
0
100
AcDbDictionary
281
     1
  3
ACAD_GROUP
350
D
  3
ACAD_LAYOUT
350
1A
  3
ACAD_MLINESTYLE
350
17
  3
ACAD_PLOTSETTINGS
350
19
  3
ACAD_PLOTSTYLENAME
350
E
  3
ACAD_SCALELIST
350
47
  0
DICTIONARY
  5
D
102
{ACAD_REACTORS
330
C
102
}
330
C
100
AcDbDictionary
281
     1
  0
DICTIONARY
  5
1A
102
{ACAD_REACTORS
330
C
102
}
330
C
100
AcDbDictionary
281
     1
  3
_Back
350
26
  3
_Bottom
350
D6
  3
_Dimetric
350
146
  3
_Isometric
350
F8
  3
_Left
350
AA
  3
_Right
350
C2
  3
_Top
350
1E
  3
_Trimetric
350
11F
  3
Model
350
22
  0
DICTIONARY
  5
17
102
{ACAD_REACTORS
330
C
102
}
330
C
100
AcDbDictionary
281
     1
  3
Standard
350
18
  0
DICTIONARY
  5
19
102
{ACAD_REACTORS
330
C
102
}
330
C
100
AcDbDictionary
281
     1
  0
ACDBDICTIONARYWDFLT
  5
E
102
{ACAD_REACTORS
330
C
102
}
330
C
100
AcDbDictionary
281
     1
  3
Normal
350
F
100
AcDbDictionaryWithDefault
340
F
  0
DICTIONARY
  5
47
102
{ACAD_REACTORS
330
C
102
}
330
C
100
AcDbDictionary
281
     1
  3
A0
350
48
  3
A1
350
49
  3
A2
350
4A
  3
A3
350
4B
  3
A4
350
4C
  3
A5
350
4D
  3
A6
350
4E
  3
A7
350
4F
  3
A8
350
50
  3
A9
350
51
  3
B0
350
52
  3
B1
350
53
  3
B2
350
54
  3
B3
350
55
  3
B4
350
56
  3
B5
350
57
  3
B6
350
58
  3
B7
350
59
  3
B8
350
5A
  3
B9
350
5B
  3
C0
350
5C
  3
C1
350
5D
  3
C2
350
5E
  3
C3
350
5F
  3
C4
350
60
  3
C5
350
61
  3
C6
350
62
  3
C7
350
63
  3
C8
350
64
  3
C9
350
65
  3
D0
350
66
  3
D1
350
67
  3
D2
350
68
  0
LAYOUT
  5
26
102
{ACAD_REACTORS
330
1A
102
}
330
1A
100
AcDbPlotSettings
  1

  2
none_device
  4
Letter_(8.50_x_11.00_Inches)
  6

 40
6.35
 41
6.35
 42
6.35001
 43
6.35001
 44
215.9
 45
279.4
 46
0.0
 47
0.0
 48
0.0
 49
0.0
140
0.0
141
0.0
142
1.0
143
1.0257352497
 70
   688
 72
     0
 73
     1
 74
     1
  7

 75
     0
147
0.9749104365
148
109.3682233007
149
19.05
100
AcDbLayout
  1
_Back
 70
     1
 71
     2
 10
0.0
 20
0.0
 11
0.0
 21
0.0
 12
0.0
 22
0.0
 32
0.0
 14
0.0
 24
0.0
 34
0.0
 15
0.0
 25
0.0
 35
0.0
146
0.0
 13
0.0
 23
0.0
 33
0.0
 16
1.0
 26
0.0
 36
0.0
 17
0.0
 27
1.0
 37
0.0
 76
     0
330
23
331
16E
  0
LAYOUT
  5
D6
102
{ACAD_REACTORS
330
1A
102
}
330
1A
100
AcDbPlotSettings
  1

  2
none_device
  4
Letter_(8.50_x_11.00_Inches)
  6

 40
6.35
 41
6.35
 42
6.35001
 43
6.35001
 44
215.9
 45
279.4
 46
0.0
 47
0.0
 48
0.0
 49
0.0
140
0.0
141
0.0
142
1.0
143
1.0257352497
 70
   688
 72
     0
 73
     1
 74
     1
  7

 75
     0
147
0.9749104365
148
109.3682233007
149
19.05
100
AcDbLayout
  1
_Bottom
 70
     1
 71
     5
 10
0.0
 20
0.0
 11
0.0
 21
0.0
 12
0.0
 22
0.0
 32
0.0
 14
0.0
 24
0.0
 34
0.0
 15
0.0
 25
0.0
 35
0.0
146
0.0
 13
0.0
 23
0.0
 33
0.0
 16
1.0
 26
0.0
 36
0.0
 17
0.0
 27
1.0
 37
0.0
 76
     0
330
D5
331
174
  0
LAYOUT
  5
146
102
{ACAD_REACTORS
330
1A
102
}
330
1A
100
AcDbPlotSettings
  1

  2
none_device
  4
Letter_(8.50_x_11.00_Inches)
  6

 40
6.35
 41
6.35
 42
6.35001
 43
6.35001
 44
215.9
 45
279.4
 46
0.0
 47
0.0
 48
0.0
 49
0.0
140
0.0
141
0.0
142
1.0
143
1.0257352497
 70
   688
 72
     0
 73
     1
 74
     1
  7

 75
     0
147
0.9749104365
148
109.3682233007
149
19.05
100
AcDbLayout
  1
_Dimetric
 70
     1
 71
     8
 10
0.0
 20
0.0
 11
0.0
 21
0.0
 12
0.0
 22
0.0
 32
0.0
 14
0.0
 24
0.0
 34
0.0
 15
0.0
 25
0.0
 35
0.0
146
0.0
 13
0.0
 23
0.0
 33
0.0
 16
1.0
 26
0.0
 36
0.0
 17
0.0
 27
1.0
 37
0.0
 76
     0
330
145
331
17A
  0
LAYOUT
  5
F8
102
{ACAD_REACTORS
330
1A
102
}
330
1A
100
AcDbPlotSettings
  1

  2
none_device
  4
Letter_(8.50_x_11.00_Inches)
  6

 40
6.35
 41
6.35
 42
6.35001
 43
6.35001
 44
215.9
 45
279.4
 46
0.0
 47
0.0
 48
0.0
 49
0.0
140
0.0
141
0.0
142
1.0
143
1.0257352497
 70
   688
 72
     0
 73
     1
 74
     1
  7

 75
     0
147
0.9749104365
148
109.3682233007
149
19.05
100
AcDbLayout
  1
_Isometric
 70
     1
 71
     6
 10
0.0
 20
0.0
 11
0.0
 21
0.0
 12
0.0
 22
0.0
 32
0.0
 14
0.0
 24
0.0
 34
0.0
 15
0.0
 25
0.0
 35
0.0
146
0.0
 13
0.0
 23
0.0
 33
0.0
 16
1.0
 26
0.0
 36
0.0
 17
0.0
 27
1.0
 37
0.0
 76
     0
330
F7
331
176
  0
LAYOUT
  5
AA
102
{ACAD_REACTORS
330
1A
102
}
330
1A
100
AcDbPlotSettings
  1

  2
none_device
  4
Letter_(8.50_x_11.00_Inches)
  6

 40
6.35
 41
6.35
 42
6.35001
 43
6.35001
 44
215.9
 45
279.4
 46
0.0
 47
0.0
 48
0.0
 49
0.0
140
0.0
141
0.0
142
1.0
143
1.0257352497
 70
   688
 72
     0
 73
     1
 74
     1
  7

 75
     0
147
0.9749104365
148
109.3682233007
149
19.05
100
AcDbLayout
  1
_Left
 70
     1
 71
     3
 10
0.0
 20
0.0
 11
0.0
 21
0.0
 12
0.0
 22
0.0
 32
0.0
 14
0.0
 24
0.0
 34
0.0
 15
0.0
 25
0.0
 35
0.0
146
0.0
 13
0.0
 23
0.0
 33
0.0
 16
1.0
 26
0.0
 36
0.0
 17
0.0
 27
1.0
 37
0.0
 76
     0
330
A9
331
170
  0
LAYOUT
  5
C2
102
{ACAD_REACTORS
330
1A
102
}
330
1A
100
AcDbPlotSettings
  1

  2
none_device
  4
Letter_(8.50_x_11.00_Inches)
  6

 40
6.35
 41
6.35
 42
6.35001
 43
6.35001
 44
215.9
 45
279.4
 46
0.0
 47
0.0
 48
0.0
 49
0.0
140
0.0
141
0.0
142
1.0
143
1.0257352497
 70
   688
 72
     0
 73
     1
 74
     1
  7

 75
     0
147
0.9749104365
148
109.3682233007
149
19.05
100
AcDbLayout
  1
_Right
 70
     1
 71
     4
 10
0.0
 20
0.0
 11
0.0
 21
0.0
 12
0.0
 22
0.0
 32
0.0
 14
0.0
 24
0.0
 34
0.0
 15
0.0
 25
0.0
 35
0.0
146
0.0
 13
0.0
 23
0.0
 33
0.0
 16
1.0
 26
0.0
 36
0.0
 17
0.0
 27
1.0
 37
0.0
 76
     0
330
C1
331
172
  0
LAYOUT
  5
1E
102
{ACAD_REACTORS
330
1A
102
}
330
1A
100
AcDbPlotSettings
  1

  2
none_device
  4
Letter_(8.50_x_11.00_Inches)
  6

 40
6.35
 41
6.35
 42
6.35001
 43
6.35001
 44
215.9
 45
279.4
 46
0.0
 47
0.0
 48
0.0
 49
0.0
140
0.0
141
0.0
142
1.0
143
1.0257352497
 70
   688
 72
     0
 73
     1
 74
     1
  7

 75
     0
147
0.9749104365
148
109.3682233007
149
19.05
100
AcDbLayout
  1
_Top
 70
     1
 71
     1
 10
-4.5622697793
 20
-1.0064338124
 11
6.7208179674
 21
7.71231581
 12
0.0
 22
0.0
 32
0.0
 14
-4.305835563
 24
-0.75
 34
0.0
 15
6.4643841549
 25
0.0
 35
0.0
146
0.0
 13
0.0
 23
0.0
 33
0.0
 16
1.0
 26
0.0
 36
0.0
 17
0.0
 27
1.0
 37
0.0
 76
     0
330
1B
331
16C
  0
LAYOUT
  5
11F
102
{ACAD_REACTORS
330
1A
102
}
330
1A
100
AcDbPlotSettings
  1

  2
none_device
  4
Letter_(8.50_x_11.00_Inches)
  6

 40
6.35
 41
6.35
 42
6.35001
 43
6.35001
 44
215.9
 45
279.4
 46
0.0
 47
0.0
 48
0.0
 49
0.0
140
0.0
141
0.0
142
1.0
143
1.0257352497
 70
   688
 72
     0
 73
     1
 74
     1
  7

 75
     0
147
0.9749104365
148
109.3682233007
149
19.05
100
AcDbLayout
  1
_Trimetric
 70
     1
 71
     7
 10
0.0
 20
0.0
 11
0.0
 21
0.0
 12
0.0
 22
0.0
 32
0.0
 14
0.0
 24
0.0
 34
0.0
 15
0.0
 25
0.0
 35
0.0
146
0.0
 13
0.0
 23
0.0
 33
0.0
 16
1.0
 26
0.0
 36
0.0
 17
0.0
 27
1.0
 37
0.0
 76
     0
330
11E
331
178
  0
LAYOUT
  5
22
102
{ACAD_REACTORS
330
1A
102
}
330
1A
100
AcDbPlotSettings
  1

  2
none_device
  4
ANSI_A_(11.00_x_8.50_Inches)
  6

 40
6.35
 41
19.05
 42
6.35000508
 43
19.05000254
 44
279.4
 45
215.9
 46
124.4489455033
 47
-68.1417093914
 48
0.0
 49
0.0
140
0.0
141
0.0
142
0.3246951379
143
1.0
 70
  1696
 72
     0
 73
     0
 74
     0
  7

 75
     0
147
0.5913241897
148
-39.4088153714
149
0.0
100
AcDbLayout
  1
Model
 70
     1
 71
     0
 10
0.0
 20
0.0
 11
12.0
 21
9.0
 12
0.0
 22
0.0
 32
0.0
 14
-4.305835563
 24
6.0833815583
 34
0.0
 15
6.4643841549
 25
32.0
 35
0.0
146
0.0
 13
0.0
 23
0.0
 33
0.0
 16
1.0
 26
0.0
 36
0.0
 17
0.0
 27
1.0
 37
0.0
 76
     0
330
1F
331
29
  0
MLINESTYLE
  5
18
102
{ACAD_REACTORS
330
17
102
}
330
17
100
AcDbMlineStyle
  2
Standard
 70
     0
  3

 62
   256
 51
90.0
 52
90.0
 71
     2
 49
0.5
 62
   256
  6
BYLAYER
 49
-0.5
 62
   256
  6
BYLAYER
  0
ACDBPLACEHOLDER
  5
F
102
{ACAD_REACTORS
330
E
102
}
330
E
  0
SCALE
  5
48
102
{ACAD_REACTORS
330
47
102
}
330
47
100
AcDbScale
 70
     0
300
1:1
140
1.0
141
1.0
290
     1
  0
SCALE
  5
49
102
{ACAD_REACTORS
330
47
102
}
330
47
100
AcDbScale
 70
     0
300
1:2
140
1.0
141
2.0
290
     0
  0
SCALE
  5
4A
102
{ACAD_REACTORS
330
47
102
}
330
47
100
AcDbScale
 70
     0
300
1:4
140
1.0
141
4.0
290
     0
  0
SCALE
  5
4B
102
{ACAD_REACTORS
330
47
102
}
330
47
100
AcDbScale
 70
     0
300
1:5
140
1.0
141
5.0
290
     0
  0
SCALE
  5
4C
102
{ACAD_REACTORS
330
47
102
}
330
47
100
AcDbScale
 70
     0
300
1:8
140
1.0
141
8.0
290
     0
  0
SCALE
  5
4D
102
{ACAD_REACTORS
330
47
102
}
330
47
100
AcDbScale
 70
     0
300
1:10
140
1.0
141
10.0
290
     0
  0
SCALE
  5
4E
102
{ACAD_REACTORS
330
47
102
}
330
47
100
AcDbScale
 70
     0
300
1:16
140
1.0
141
16.0
290
     0
  0
SCALE
  5
4F
102
{ACAD_REACTORS
330
47
102
}
330
47
100
AcDbScale
 70
     0
300
1:20
140
1.0
141
20.0
290
     0
  0
SCALE
  5
50
102
{ACAD_REACTORS
330
47
102
}
330
47
100
AcDbScale
 70
     0
300
1:30
140
1.0
141
30.0
290
     0
  0
SCALE
  5
51
102
{ACAD_REACTORS
330
47
102
}
330
47
100
AcDbScale
 70
     0
300
1:40
140
1.0
141
40.0
290
     0
  0
SCALE
  5
52
102
{ACAD_REACTORS
330
47
102
}
330
47
100
AcDbScale
 70
     0
300
1:50
140
1.0
141
50.0
290
     0
  0
SCALE
  5
53
102
{ACAD_REACTORS
330
47
102
}
330
47
100
AcDbScale
 70
     0
300
1:100
140
1.0
141
100.0
290
     0
  0
SCALE
  5
54
102
{ACAD_REACTORS
330
47
102
}
330
47
100
AcDbScale
 70
     0
300
2:1
140
2.0
141
1.0
290
     0
  0
SCALE
  5
55
102
{ACAD_REACTORS
330
47
102
}
330
47
100
AcDbScale
 70
     0
300
4:1
140
4.0
141
1.0
290
     0
  0
SCALE
  5
56
102
{ACAD_REACTORS
330
47
102
}
330
47
100
AcDbScale
 70
     0
300
8:1
140
8.0
141
1.0
290
     0
  0
SCALE
  5
57
102
{ACAD_REACTORS
330
47
102
}
330
47
100
AcDbScale
 70
     0
300
10:1
140
10.0
141
1.0
290
     0
  0
SCALE
  5
58
102
{ACAD_REACTORS
330
47
102
}
330
47
100
AcDbScale
 70
     0
300
100:1
140
100.0
141
1.0
290
     0
  0
SCALE
  5
59
102
{ACAD_REACTORS
330
47
102
}
330
47
100
AcDbScale
 70
     0
300
1/128" = 1'-0"
140
0.0078125
141
12.0
290
     0
  0
SCALE
  5
5A
102
{ACAD_REACTORS
330
47
102
}
330
47
100
AcDbScale
 70
     0
300
1/64" = 1'-0"
140
0.015625
141
12.0
290
     0
  0
SCALE
  5
5B
102
{ACAD_REACTORS
330
47
102
}
330
47
100
AcDbScale
 70
     0
300
1/32" = 1'-0"
140
0.03125
141
12.0
290
     0
  0
SCALE
  5
5C
102
{ACAD_REACTORS
330
47
102
}
330
47
100
AcDbScale
 70
     0
300
1/16" = 1'-0"
140
0.0625
141
12.0
290
     0
  0
SCALE
  5
5D
102
{ACAD_REACTORS
330
47
102
}
330
47
100
AcDbScale
 70
     0
300
3/32" = 1'-0"
140
0.09375
141
12.0
290
     0
  0
SCALE
  5
5E
102
{ACAD_REACTORS
330
47
102
}
330
47
100
AcDbScale
 70
     0
300
1/8" = 1'-0"
140
0.125
141
12.0
290
     0
  0
SCALE
  5
5F
102
{ACAD_REACTORS
330
47
102
}
330
47
100
AcDbScale
 70
     0
300
3/16" = 1'-0"
140
0.1875
141
12.0
290
     0
  0
SCALE
  5
60
102
{ACAD_REACTORS
330
47
102
}
330
47
100
AcDbScale
 70
     0
300
1/4" = 1'-0"
140
0.25
141
12.0
290
     0
  0
SCALE
  5
61
102
{ACAD_REACTORS
330
47
102
}
330
47
100
AcDbScale
 70
     0
300
3/8" = 1'-0"
140
0.375
141
12.0
290
     0
  0
SCALE
  5
62
102
{ACAD_REACTORS
330
47
102
}
330
47
100
AcDbScale
 70
     0
300
1/2" = 1'-0"
140
0.5
141
12.0
290
     0
  0
SCALE
  5
63
102
{ACAD_REACTORS
330
47
102
}
330
47
100
AcDbScale
 70
     0
300
3/4" = 1'-0"
140
0.75
141
12.0
290
     0
  0
SCALE
  5
64
102
{ACAD_REACTORS
330
47
102
}
330
47
100
AcDbScale
 70
     0
300
1" = 1'-0"
140
1.0
141
12.0
290
     0
  0
SCALE
  5
65
102
{ACAD_REACTORS
330
47
102
}
330
47
100
AcDbScale
 70
     0
300
1-1/2" = 1'-0"
140
1.5
141
12.0
290
     0
  0
SCALE
  5
66
102
{ACAD_REACTORS
330
47
102
}
330
47
100
AcDbScale
 70
     0
300
3" = 1'-0"
140
3.0
141
12.0
290
     0
  0
SCALE
  5
67
102
{ACAD_REACTORS
330
47
102
}
330
47
100
AcDbScale
 70
     0
300
6" = 1'-0"
140
6.0
141
12.0
290
     0
  0
SCALE
  5
68
102
{ACAD_REACTORS
330
47
102
}
330
47
100
AcDbScale
 70
     0
300
1'-0" = 1'-0"
140
12.0
141
12.0
290
     0
  0
ENDSEC
  0
EOF
