  0
SECTION
  2
HEADER
  9
$ACADVER
  1
AC1015
  9
$ACADMAINTVER
 70
     6
  9
$DWGCODEPAGE
  3
ANSI_1252
  9
$INSBASE
 10
0.0
 20
0.0
 30
0.0
  9
$EXTMIN
 10
-6.6147429312
 20
0.0
 30
0.0
  9
$EXTMAX
 10
6.6147429312
 20
32.0
 30
0.0
  9
$LIMMIN
 10
0.0
 20
0.0
  9
$LIMMAX
 10
12.0
 20
9.0
  9
$ORTHOMODE
 70
     0
  9
$REGENMODE
 70
     1
  9
$FILLMODE
 70
     1
  9
$QTEXTMODE
 70
     0
  9
$MIRRTEXT
 70
     1
  9
$LTSCALE
 40
1.0
  9
$ATTMODE
 70
     1
  9
$TEXTSIZE
 40
0.125
  9
$TRACEWID
 40
0.05
  9
$TEXTSTYLE
  7
Standard
  9
$CLAYER
  8
0
  9
$CELTYPE
  6
ByLayer
  9
$CECOLOR
 62
   256
  9
$CELTSCALE
 40
1.0
  9
$DISPSILH
 70
     0
  9
$DIMSCALE
 40
1.0
  9
$DIMASZ
 40
0.13
  9
$DIMEXO
 40
0.05
  9
$DIMDLI
 40
0.38
  9
$DIMRND
 40
0.0
  9
$DIMDLE
 40
0.0
  9
$DIMEXE
 40
0.125
  9
$DIMTP
 40
0.0
  9
$DIMTM
 40
0.0
  9
$DIMTXT
 40
0.125
  9
$DIMCEN
 40
0.09
  9
$DIMTSZ
 40
0.0
  9
$DIMTOL
 70
     0
  9
$DIMLIM
 70
     0
  9
$DIMTIH
 70
     1
  9
$DIMTOH
 70
     1
  9
$DIMSE1
 70
     0
  9
$DIMSE2
 70
     0
  9
$DIMTAD
 70
     0
  9
$DIMZIN
 70
     1
  9
$DIMBLK
  1

  9
$DIMASO
 70
     1
  9
$DIMSHO
 70
     1
  9
$DIMPOST
  1

  9
$DIMAPOST
  1

  9
$DIMALT
 70
     0
  9
$DIMALTD
 70
     2
  9
$DIMALTF
 40
25.4
  9
$DIMLFAC
 40
1.0
  9
$DIMTOFL
 70
     0
  9
$DIMTVP
 40
0.0
  9
$DIMTIX
 70
     0
  9
$DIMSOXD
 70
     0
  9
$DIMSAH
 70
     0
  9
$DIMBLK1
  1

  9
$DIMBLK2
  1

  9
$DIMSTYLE
  2
Standard
  9
$DIMCLRD
 70
     0
  9
$DIMCLRE
 70
     0
  9
$DIMCLRT
 70
     0
  9
$DIMTFAC
 40
1.0
  9
$DIMGAP
 40
0.06
  9
$DIMJUST
 70
     0
  9
$DIMSD1
 70
     0
  9
$DIMSD2
 70
     0
  9
$DIMTOLJ
 70
     1
  9
$DIMTZIN
 70
     1
  9
$DIMALTZ
 70
     0
  9
$DIMALTTZ
 70
     0
  9
$DIMUPT
 70
     0
  9
$DIMDEC
 70
     2
  9
$DIMTDEC
 70
     2
  9
$DIMALTU
 70
     2
  9
$DIMALTTD
 70
     2
  9
$DIMTXSTY
  7
Standard
  9
$DIMAUNIT
 70
     0
  9
$DIMADEC
 70
     2
  9
$DIMALTRND
 40
0.0
  9
$DIMAZIN
 70
     0
  9
$DIMDSEP
 70
    46
  9
$DIMATFIT
 70
     3
  9
$DIMFRAC
 70
     0
  9
$DIMLDRBLK
  1

  9
$DIMLUNIT
 70
     2
  9
$DIMLWD
 70
    -2
  9
$DIMLWE
 70
    -2
  9
$DIMTMOVE
 70
     0
  9
$LUNITS
 70
     2
  9
$LUPREC
 70
     2
  9
$SKETCHINC
 40
0.1
  9
$FILLETRAD
 40
0.5
  9
$AUNITS
 70
     0
  9
$AUPREC
 70
     2
  9
$MENU
  1
.
  9
$ELEVATION
 40
0.0
  9
$PELEVATION
 40
0.0
  9
$THICKNESS
 40
0.0
  9
$LIMCHECK
 70
     0
  9
$CHAMFERA
 40
0.0
  9
$CHAMFERB
 40
0.0
  9
$CHAMFERC
 40
0.0
  9
$CHAMFERD
 40
0.0
  9
$SKPOLY
 70
     0
  9
$TDCREATE
 40
2459078.517790683
  9
$TDUCREATE
 40
2459078.80945735
  9
$TDUPDATE
 40
2459078.517849838
  9
$TDUUPDATE
 40
2459078.809516504
  9
$TDINDWG
 40
0.0000000116
  9
$TDUSRTIMER
 40
0.0000000116
  9
$USRTIMER
 70
     1
  9
$ANGBASE
 50
0.0
  9
$ANGDIR
 70
     0
  9
$PDMODE
 70
     0
  9
$PDSIZE
 40
-1.0
  9
$PLINEWID
 40
0.0
  9
$SPLFRAME
 70
     0
  9
$SPLINETYPE
 70
     6
  9
$SPLINESEGS
 70
     8
  9
$HANDSEED
  5
86
  9
$SURFTAB1
 70
     6
  9
$SURFTAB2
 70
     6
  9
$SURFTYPE
 70
     6
  9
$SURFU
 70
     6
  9
$SURFV
 70
     6
  9
$UCSBASE
  2

  9
$UCSNAME
  2

  9
$UCSORG
 10
0.0
 20
0.0
 30
0.0
  9
$UCSXDIR
 10
1.0
 20
0.0
 30
0.0
  9
$UCSYDIR
 10
0.0
 20
1.0
 30
0.0
  9
$UCSORTHOREF
  2

  9
$UCSORTHOVIEW
 70
     0
  9
$UCSORGTOP
 10
0.0
 20
0.0
 30
0.0
  9
$UCSORGBOTTOM
 10
0.0
 20
0.0
 30
0.0
  9
$UCSORGLEFT
 10
0.0
 20
0.0
 30
0.0
  9
$UCSORGRIGHT
 10
0.0
 20
0.0
 30
0.0
  9
$UCSORGFRONT
 10
0.0
 20
0.0
 30
0.0
  9
$UCSORGBACK
 10
0.0
 20
0.0
 30
0.0
  9
$PUCSBASE
  2

  9
$PUCSNAME
  2

  9
$PUCSORG
 10
0.0
 20
0.0
 30
0.0
  9
$PUCSXDIR
 10
1.0
 20
0.0
 30
0.0
  9
$PUCSYDIR
 10
0.0
 20
1.0
 30
0.0
  9
$PUCSORTHOREF
  2

  9
$PUCSORTHOVIEW
 70
     0
  9
$PUCSORGTOP
 10
0.0
 20
0.0
 30
0.0
  9
$PUCSORGBOTTOM
 10
0.0
 20
0.0
 30
0.0
  9
$PUCSORGLEFT
 10
0.0
 20
0.0
 30
0.0
  9
$PUCSORGRIGHT
 10
0.0
 20
0.0
 30
0.0
  9
$PUCSORGFRONT
 10
0.0
 20
0.0
 30
0.0
  9
$PUCSORGBACK
 10
0.0
 20
0.0
 30
0.0
  9
$USERI1
 70
     0
  9
$USERI2
 70
     0
  9
$USERI3
 70
     0
  9
$USERI4
 70
     0
  9
$USERI5
 70
     0
  9
$USERR1
 40
0.0
  9
$USERR2
 40
0.0
  9
$USERR3
 40
0.0
  9
$USERR4
 40
0.0
  9
$USERR5
 40
0.0
  9
$WORLDVIEW
 70
     1
  9
$SHADEDGE
 70
     3
  9
$SHADEDIF
 70
    70
  9
$TILEMODE
 70
     1
  9
$MAXACTVP
 70
    64
  9
$PINSBASE
 10
0.0
 20
0.0
 30
0.0
  9
$PLIMCHECK
 70
     0
  9
$PEXTMIN
 10
1.0000000000E+20
 20
1.0000000000E+20
 30
1.0000000000E+20
  9
$PEXTMAX
 10
-1.0000000000E+20
 20
-1.0000000000E+20
 30
-1.0000000000E+20
  9
$PLIMMIN
 10
0.0
 20
0.0
  9
$PLIMMAX
 10
12.0
 20
9.0
  9
$UNITMODE
 70
     0
  9
$VISRETAIN
 70
     1
  9
$PLINEGEN
 70
     0
  9
$PSLTSCALE
 70
     1
  9
$TREEDEPTH
 70
  3020
  9
$CMLSTYLE
  2
Standard
  9
$CMLJUST
 70
     0
  9
$CMLSCALE
 40
1.0
  9
$PROXYGRAPHICS
 70
     1
  9
$MEASUREMENT
 70
     0
  9
$CELWEIGHT
370
    -1
  9
$ENDCAPS
280
     0
  9
$JOINSTYLE
280
     0
  9
$LWDISPLAY
290
     1
  9
$INSUNITS
 70
     1
  9
$HYPERLINKBASE
  1

  9
$STYLESHEET
  1

  9
$XEDIT
290
     1
  9
$CEPSNTYPE
380
     0
  9
$PSTYLEMODE
290
     1
  9
$FINGERPRINTGUID
  2
{6C1650D7-7A7C-4F08-9B97-43DD52C24564}
  9
$VERSIONGUID
  2
{FAEB1C32-E019-11D5-929B-00C0DF256EC4}
  9
$EXTNAMES
290
     1
  9
$PSVPSCALE
 40
0.0
  9
$OLESTARTUP
290
     0
  0
ENDSEC
  0
SECTION
  2
CLASSES
  0
CLASS
  1
ACDBDICTIONARYWDFLT
  2
AcDbDictionaryWithDefault
  3
ObjectDBX Classes
 90
        0
280
     0
281
     0
  0
CLASS
  1
VISUALSTYLE
  2
AcDbVisualStyle
  3
ObjectDBX Classes
 90
     4095
280
     0
281
     0
  0
CLASS
  1
MATERIAL
  2
AcDbMaterial
  3
ObjectDBX Classes
 90
     1153
280
     0
281
     0
  0
CLASS
  1
SCALE
  2
AcDbScale
  3
ObjectDBX Classes
 90
     1153
280
     0
281
     0
  0
CLASS
  1
TABLESTYLE
  2
AcDbTableStyle
  3
ObjectDBX Classes
 90
     4095
280
     0
281
     0
  0
CLASS
  1
MLEADERSTYLE
  2
AcDbMLeaderStyle
  3
ACDB_MLEADERSTYLE_CLASS
 90
     4095
280
     0
281
     0
  0
CLASS
  1
SUN
  2
AcDbSun
  3
SCENEOE
 90
     1153
280
     0
281
     0
  0
CLASS
  1
ACDBPLACEHOLDER
  2
AcDbPlaceHolder
  3
ObjectDBX Classes
 90
        0
280
     0
281
     0
  0
CLASS
  1
LAYOUT
  2
AcDbLayout
  3
ObjectDBX Classes
 90
        0
280
     0
281
     0
  0
ENDSEC
  0
SECTION
  2
TABLES
  0
TABLE
  2
VPORT
  5
8
330
0
100
AcDbSymbolTable
 70
     1
  0
VPORT
  5
29
330
8
100
AcDbSymbolTableRecord
100
AcDbViewportTableRecord
  2
*Active
 70
     0
 10
0.0
 20
0.0
 11
1.0
 21
1.0
 12
0.0
 22
16.0
 13
0.0
 23
0.0
 14
0.5
 24
0.5
 15
0.5
 25
0.5
 16
0.0
 26
0.0
 36
1.0
 17
0.0
 27
0.0
 37
0.0
 40
32.64
 41
0.4134214332
 42
50.0
 43
0.0
 44
0.0
 50
0.0
 51
0.0
 71
     0
 72
   100
 73
     1
 74
     3
 75
     0
 76
     0
 77
     0
 78
     0
281
     0
 65
     1
110
0.0
120
0.0
130
0.0
111
1.0
121
0.0
131
0.0
112
0.0
122
1.0
132
0.0
 79
     0
146
0.0
  0
ENDTAB
  0
TABLE
  2
LTYPE
  5
5
330
0
100
AcDbSymbolTable
 70
     6
  0
LTYPE
  5
14
330
5
100
AcDbSymbolTableRecord
100
AcDbLinetypeTableRecord
  2
ByBlock
 70
     0
  3

 72
    65
 73
     0
 40
0.0
  0
LTYPE
  5
15
330
5
100
AcDbSymbolTableRecord
100
AcDbLinetypeTableRecord
  2
ByLayer
 70
     0
  3

 72
    65
 73
     0
 40
0.0
  0
LTYPE
  5
16
330
5
100
AcDbSymbolTableRecord
100
AcDbLinetypeTableRecord
  2
Continuous
 70
     0
  3
Solid line
 72
    65
 73
     0
 40
0.0
  0
LTYPE
  5
6E
330
5
100
AcDbSymbolTableRecord
100
AcDbLinetypeTableRecord
  2
HIDDEN
 70
     0
  3
Hidden __ __ __ __ __ __ __ __ __ __ __ __ __ __
 72
    65
 73
     2
 40
0.075
 49
0.05
 74
     0
 49
-0.025
 74
     0
  0
LTYPE
  5
6F
330
5
100
AcDbSymbolTableRecord
100
AcDbLinetypeTableRecord
  2
PHANTOM
 70
     0
  3
Phantom ______  __  __  ______  __  __  ______
 72
    65
 73
     6
 40
0.5
 49
0.25
 74
     0
 49
-0.05
 74
     0
 49
0.05
 74
     0
 49
-0.05
 74
     0
 49
0.05
 74
     0
 49
-0.05
 74
     0
  0
LTYPE
  5
70
330
5
100
AcDbSymbolTableRecord
100
AcDbLinetypeTableRecord
  2
CENTER
 70
     0
  3
Center ____ _ ____ _ ____ _ ____ _ ____ _ ____
 72
    65
 73
     4
 40
0.4
 49
0.25
 74
     0
 49
-0.05
 74
     0
 49
0.05
 74
     0
 49
-0.05
 74
     0
  0
LTYPE
  5
71
330
5
100
AcDbSymbolTableRecord
100
AcDbLinetypeTableRecord
  2
CENTERX2
 70
     0
  3
Center (2x) ________  __  ________  __  _____
 72
    65
 73
     4
 40
0.8
 49
0.5
 74
     0
 49
-0.1
 74
     0
 49
0.1
 74
     0
 49
-0.1
 74
     0
  0
LTYPE
  5
72
330
5
100
AcDbSymbolTableRecord
100
AcDbLinetypeTableRecord
  2
DOT2
 70
     0
  3
Dot (.5x) ........................................
 72
    65
 73
     2
 40
0.025
 49
0.0
 74
     0
 49
-0.025
 74
     0
  0
ENDTAB
  0
TABLE
  2
LAYER
  5
2
330
0
100
AcDbSymbolTable
 70
     1
  0
LAYER
  5
10
330
2
100
AcDbSymbolTableRecord
100
AcDbLayerTableRecord
  2
0
 70
     0
 62
     7
  6
Continuous
370
    -3
390
F
  0
ENDTAB
  0
TABLE
  2
STYLE
  5
3
330
0
100
AcDbSymbolTable
 70
     2
  0
STYLE
  5
11
330
3
100
AcDbSymbolTableRecord
100
AcDbTextStyleTableRecord
  2
Standard
 70
     0
 40
0.0
 41
1.0
 50
0.0
 71
     0
 42
0.125
  3
txt
  4

  0
STYLE
  5
83
330
3
100
AcDbSymbolTableRecord
100
AcDbTextStyleTableRecord
  2
SLDTEXTSTYLE0
 70
     0
 40
0.0
 41
0.7
 50
0.0
 71
     0
 42
0.125
  3
TXT
  4

  0
ENDTAB
  0
TABLE
  2
VIEW
  5
6
330
0
100
AcDbSymbolTable
 70
     0
  0
ENDTAB
  0
TABLE
  2
UCS
  5
7
330
0
100
AcDbSymbolTable
 70
     0
  0
ENDTAB
  0
TABLE
  2
APPID
  5
9
330
0
100
AcDbSymbolTable
 70
     1
  0
APPID
  5
12
330
9
100
AcDbSymbolTableRecord
100
AcDbRegAppTableRecord
  2
ACAD
 70
     0
  0
ENDTAB
  0
TABLE
  2
DIMSTYLE
  5
A
330
0
100
AcDbSymbolTable
 70
     1
100
AcDbDimStyleTable
  0
DIMSTYLE
105
27
330
A
100
AcDbSymbolTableRecord
100
AcDbDimStyleTableRecord
  2
Standard
 70
     0
178
     0
340
11
  0
ENDTAB
  0
TABLE
  2
BLOCK_RECORD
  5
1
330
0
100
AcDbSymbolTable
 70
     1
  0
BLOCK_RECORD
  5
1F
330
1
100
AcDbSymbolTableRecord
100
AcDbBlockTableRecord
  2
*Model_Space
340
22
  0
BLOCK_RECORD
  5
1B
330
1
100
AcDbSymbolTableRecord
100
AcDbBlockTableRecord
  2
*Paper_Space
340
1E
  0
BLOCK_RECORD
  5
23
330
1
100
AcDbSymbolTableRecord
100
AcDbBlockTableRecord
  2
*Paper_Space0
340
26
  0
ENDTAB
  0
ENDSEC
  0
SECTION
  2
BLOCKS
  0
BLOCK
  5
20
330
1F
100
AcDbEntity
  8
0
100
AcDbBlockBegin
  2
*Model_Space
 70
     0
 10
0.0
 20
0.0
 30
0.0
  3
*Model_Space
  1

  0
ENDBLK
  5
21
330
1F
100
AcDbEntity
  8
0
100
AcDbBlockEnd
  0
BLOCK
  5
1C
330
1B
100
AcDbEntity
 67
     1
  8
0
100
AcDbBlockBegin
  2
*Paper_Space
 70
     0
 10
0.0
 20
0.0
 30
0.0
  3
*Paper_Space
  1

  0
ENDBLK
  5
1D
330
1B
100
AcDbEntity
 67
     1
  8
0
100
AcDbBlockEnd
  0
BLOCK
  5
24
330
23
100
AcDbEntity
  8
0
100
AcDbBlockBegin
  2
*Paper_Space0
 70
     0
 10
0.0
 20
0.0
 30
0.0
  3
*Paper_Space0
  1

  0
ENDBLK
  5
25
330
23
100
AcDbEntity
  8
0
100
AcDbBlockEnd
  0
ENDSEC
  0
SECTION
  2
ENTITIES
  0
SPLINE
  5
73
330
1F
100
AcDbEntity
  8
0
  6
Continuous
 62
     7
370
    25
100
AcDbSpline
210
0.0
220
0.0
230
1.0
 70
     8
 71
     3
 72
     8
 73
     4
 74
     0
 42
0.000000001
 43
0.00000001
 40
0.0
 40
0.0
 40
0.0
 40
0.0
 40
1.0
 40
1.0
 40
1.0
 40
1.0
 10
-6.562499999999998
 20
5.125000000000002
 30
0.0
 10
-7.133389463019348
 20
1.425229748390224
 30
0.0
 10
-2.900259079595932
 20
0.0685305508568494
 30
0.0
 10
0.0
 20
0.0
 30
0.0
  0
SPLINE
  5
75
330
1F
100
AcDbEntity
  8
0
  6
Continuous
 62
     7
370
    25
100
AcDbSpline
210
0.0
220
0.0
230
1.0
 70
     8
 71
     3
 72
     8
 73
     4
 74
     0
 42
0.000000001
 43
0.00000001
 40
0.0
 40
0.0
 40
0.0
 40
0.0
 40
1.0
 40
1.0
 40
1.0
 40
1.0
 10
0.0
 20
32.0
 30
0.0
 10
-2.589384896799177
 20
31.91037037779552
 30
0.0
 10
-3.99195813610977
 20
30.91343704574044
 30
0.0
 10
-4.20771971793178
 20
29.00920000383482
 30
0.0
  0
SPLINE
  5
76
330
1F
100
AcDbEntity
  8
0
  6
Continuous
 62
     7
370
    25
100
AcDbSpline
210
0.0
220
0.0
230
1.0
 70
     8
 71
     3
 72
     8
 73
     4
 74
     0
 42
0.000000001
 43
0.00000001
 40
0.0
 40
0.0
 40
0.0
 40
0.0
 40
1.0
 40
1.0
 40
1.0
 40
1.0
 10
4.20771971793178
 20
29.00920000383482
 30
0.0
 10
3.99195813610977
 20
30.91343704574044
 30
0.0
 10
2.589384896799176
 20
31.91037037779551
 30
0.0
 10
0.0
 20
32.0
 30
0.0
  0
SPLINE
  5
78
330
1F
100
AcDbEntity
  8
0
  6
Continuous
 62
     7
370
    25
100
AcDbSpline
210
0.0
220
0.0
230
1.0
 70
     8
 71
     3
 72
     8
 73
     4
 74
     0
 42
0.000000001
 43
0.00000001
 40
0.0
 40
0.0
 40
0.0
 40
0.0
 40
1.0
 40
1.0
 40
1.0
 40
1.0
 10
0.0
 20
0.0
 30
0.0
 10
2.900259079595932
 20
0.0685305508568494
 30
0.0
 10
7.133389463019348
 20
1.425229748390224
 30
0.0
 10
6.562499999999998
 20
5.125000000000002
 30
0.0
  0
SPLINE
  5
7A
330
1F
100
AcDbEntity
  8
0
  6
Continuous
 62
     7
370
    25
100
AcDbSpline
210
0.0
220
0.0
230
1.0
 70
     8
 71
     3
 72
    44
 73
    40
 74
     0
 42
0.000000001
 43
0.00000001
 40
0.0
 40
0.0
 40
0.0
 40
0.0
 40
0.1250000000000007
 40
0.1250000000000007
 40
0.1875000000000008
 40
0.1875000000000008
 40
0.2187500000000009
 40
0.2187500000000009
 40
0.2500000000000011
 40
0.2500000000000011
 40
0.3750000000000021
 40
0.3750000000000021
 40
0.4375000000000028
 40
0.4375000000000028
 40
0.468750000000003
 40
0.468750000000003
 40
0.5000000000000032
 40
0.5000000000000032
 40
0.6250000000000068
 40
0.6250000000000068
 40
0.6406250000000069
 40
0.6406250000000069
 40
0.6562500000000069
 40
0.6562500000000069
 40
0.6875000000000071
 40
0.6875000000000071
 40
0.7500000000000072
 40
0.7500000000000072
 40
0.7812500000000061
 40
0.7812500000000061
 40
0.7968750000000057
 40
0.7968750000000057
 40
0.8125000000000052
 40
0.8125000000000052
 40
0.8750000000000034
 40
0.8750000000000034
 40
0.9375000000000018
 40
0.9375000000000018
 40
1.0
 40
1.0
 40
1.0
 40
1.0
 10
0.0000000000617288
 20
31.62476717637243
 30
0.0
 10
0.2157170689880862
 20
31.61702607730467
 30
0.0
 10
0.4307102002582339
 20
31.60251785903172
 30
0.0
 10
0.7518082408230926
 20
31.56774680875185
 30
0.0
 10
0.8586077672517511
 20
31.553977017835
 30
0.0
 10
1.018403886472778
 20
31.52955363358155
 30
0.0
 10
1.071601935313849
 20
31.52078318180522
 30
0.0
 10
1.177852634089713
 20
31.50188313951973
 30
0.0
 10
1.230951792482237
 20
31.49174321781435
 30
0.0
 10
1.495120825077462
 20
31.43755874745343
 30
0.0
 10
1.702706533136485
 20
31.38313962806465
 30
0.0
 10
2.006553048963988
 20
31.27927039047865
 30
0.0
 10
2.106571143254414
 20
31.24091475415261
 30
0.0
 10
2.254346323250556
 20
31.17673172816717
 30
0.0
 10
2.303228364440131
 20
31.15422609694663
 30
0.0
 10
2.400165368956379
 20
31.10677264642916
 30
0.0
 10
2.448316089610034
 20
31.081771537516
 30
0.0
 10
2.685666863067239
 20
30.95063990182717
 30
0.0
 10
2.862211052914633
 20
30.82774767452785
 30
0.0
 10
3.041846702645847
 20
30.66390011749222
 30
0.0
 10
3.061541123050016
 20
30.64533729655448
 30
0.0
 10
3.100383317887974
 20
30.6074743901034
 30
0.0
 10
3.119565703206717
 20
30.58813721498465
 30
0.0
 10
3.175935278031053
 20
30.52933756497101
 30
0.0
 10
3.211973262305625
 20
30.48907065094877
 30
0.0
 10
3.315495656261093
 20
30.36509175017037
 30
0.0
 10
3.378385352214055
 20
30.27819942098897
 30
0.0
 10
3.463724506162924
 20
30.14163455010734
 30
0.0
 10
3.49067247206384
 20
30.09507575964049
 30
0.0
 10
3.528877242699221
 20
30.02370290032144
 30
0.0
 10
3.541242675593701
 20
29.99965619530914
 30
0.0
 10
3.56524004634221
 20
29.95105507892221
 30
0.0
 10
3.576892152787134
 20
29.92645489645863
 30
0.0
 10
3.633020878545905
 20
29.8028959290406
 30
0.0
 10
3.671178462380583
 20
29.70222836196582
 30
0.0
 10
3.735970187698023
 20
29.49778337436577
 30
0.0
 10
3.762600773425665
 20
29.39400499424174
 30
0.0
 10
3.80588262749375
 20
29.18375509650696
 30
0.0
 10
3.822530982584003
 20
29.0772827926921
 30
0.0
 10
3.834802896547475
 20
28.96962941033037
 30
0.0
  0
SPLINE
  5
7B
330
1F
100
AcDbEntity
  8
0
  6
Continuous
 62
     7
370
    25
100
AcDbSpline
210
0.0
220
0.0
230
1.0
 70
     8
 71
     3
 72
    60
 73
    56
 74
     0
 42
0.000000001
 43
0.00000001
 40
0.0
 40
0.0
 40
0.0
 40
0.0
 40
0.015625
 40
0.015625
 40
0.0312500000000001
 40
0.0312500000000001
 40
0.0625000000000004
 40
0.0625000000000004
 40
0.0781250000000004
 40
0.0781250000000004
 40
0.0937500000000004
 40
0.0937500000000004
 40
0.1250000000000004
 40
0.1250000000000004
 40
0.1875000000000002
 40
0.1875000000000002
 40
0.2031250000000002
 40
0.2031250000000002
 40
0.2187500000000003
 40
0.2187500000000003
 40
0.2500000000000006
 40
0.2500000000000006
 40
0.3125000000000007
 40
0.3125000000000007
 40
0.3281250000000007
 40
0.3281250000000007
 40
0.3437500000000007
 40
0.3437500000000007
 40
0.3750000000000006
 40
0.3750000000000006
 40
0.4375000000000004
 40
0.4375000000000004
 40
0.4687500000000004
 40
0.4687500000000004
 40
0.4843750000000003
 40
0.4843750000000003
 40
0.5000000000000002
 40
0.5000000000000002
 40
0.5625
 40
0.5625
 40
0.6249999999999998
 40
0.6249999999999998
 40
0.6562499999999997
 40
0.6562499999999997
 40
0.6874999999999996
 40
0.6874999999999996
 40
0.7499999999999997
 40
0.7499999999999997
 40
0.8124999999999998
 40
0.8124999999999998
 40
0.8749999999999998
 40
0.8749999999999998
 40
0.9374999999999999
 40
0.9374999999999999
 40
1.0
 40
1.0
 40
1.0
 40
1.0
 10
6.190318184329523
 20
5.077974348571202
 30
0.0
 10
6.19741359758536
 20
5.031991018018947
 30
0.0
 10
6.203979173633075
 20
4.985973945864283
 30
0.0
 10
6.215381842930645
 20
4.893829726651876
 30
0.0
 10
6.220315416511249
 20
4.847708723747297
 30
0.0
 10
6.232705330301381
 20
4.709192187707811
 30
0.0
 10
6.237754413137593
 20
4.616643353294819
 30
0.0
 10
6.240023464732175
 20
4.477482290780051
 30
0.0
 10
6.239894871075716
 20
4.43103891407534
 30
0.0
 10
6.237775108419295
 20
4.338033546352443
 30
0.0
 10
6.235779173874149
 20
4.291469711356523
 30
0.0
 10
6.226938499182551
 20
4.152609201232942
 30
0.0
 10
6.217238547472735
 20
4.060810158682584
 30
0.0
 10
6.176233557461806
 20
3.787835962317042
 30
0.0
 10
6.133034631894989
 20
3.60908145067428
 30
0.0
 10
6.057412802544206
 20
3.390039055959351
 30
0.0
 10
6.041178198019836
 20
3.346380893517742
 30
0.0
 10
6.006621164370824
 20
3.259824880638346
 30
0.0
 10
5.988383440158965
 20
3.217128719868439
 30
0.0
 10
5.930869461526565
 20
3.09073917864557
 30
0.0
 10
5.888793554945067
 20
3.008744039374078
 30
0.0
 10
5.751939445956214
 20
2.769204483683768
 30
0.0
 10
5.646554542355223
 20
2.618093986813181
 30
0.0
 10
5.498763187148227
 20
2.438947839052082
 30
0.0
 10
5.468371208345952
 20
2.403580177800659
 30
0.0
 10
5.406556060567097
 20
2.334383558327207
 30
0.0
 10
5.375071704566056
 20
2.300477260892809
 30
0.0
 10
5.278985586618162
 20
2.200717671122328
 30
0.0
 10
5.212753643436634
 20
2.136820239494656
 30
0.0
 10
5.008195250958836
 20
1.95216173708074
 30
0.0
 10
4.864036703676968
 20
1.838397907493852
 30
0.0
 10
4.638059749111599
 20
1.679436992027246
 30
0.0
 10
4.561102464603437
 20
1.628407622697778
 30
0.0
 10
4.443398448392246
 20
1.554584779659766
 30
0.0
 10
4.40376253980495
 20
1.530419045936986
 30
0.0
 10
4.324117724767356
 20
1.483171122124407
 30
0.0
 10
4.284067020475564
 20
1.460061857148052
 30
0.0
 10
4.082729970453879
 20
1.346958356216092
 30
0.0
 10
3.918212653891836
 20
1.264248370257576
 30
0.0
 10
3.583414399251565
 20
1.111822529886004
 30
0.0
 10
3.413127647700927
 20
1.042119781993745
 30
0.0
 10
3.153922489145664
 20
0.9460764987390605
 30
0.0
 10
3.06688910851238
 20
0.9154861561040575
 30
0.0
 10
2.891626005884339
 20
0.8570026321553862
 30
0.0
 10
2.803296349594455
 20
0.8290820450231586
 30
0.0
 10
2.53784234933032
 20
0.7495474073433979
 30
0.0
 10
2.35997036459444
 20
0.7020338930423068
 30
0.0
 10
2.002603712268906
 20
0.6169113509739258
 30
0.0
 10
1.82310847537649
 20
0.5793057981009976
 30
0.0
 10
1.462595431923702
 20
0.5133881108059427
 30
0.0
 10
1.281577613119918
 20
0.4850760511147855
 30
0.0
 10
0.9180478912710696
 20
0.437571481627073
 30
0.0
 10
0.7355366446342481
 20
0.4183749652641093
 30
0.0
 10
0.3689680553026558
 20
0.3894189507147616
 30
0.0
 10
0.1849126940403542
 20
0.3796473583159045
 30
0.0
 10
0.0000000000000003
 20
0.3751087299157951
 30
0.0
  0
SPLINE
  5
7D
330
1F
100
AcDbEntity
  8
0
  6
Continuous
 62
     7
370
    25
100
AcDbSpline
210
0.0
220
0.0
230
1.0
 70
     8
 71
     3
 72
    61
 73
    57
 74
     0
 42
0.000000001
 43
0.00000001
 40
0.0
 40
0.0
 40
0.0
 40
0.0
 40
0.0625000000000004
 40
0.0625000000000004
 40
0.0937500000000008
 40
0.0937500000000008
 40
0.125000000000001
 40
0.125000000000001
 40
0.1875000000000014
 40
0.1875000000000014
 40
0.2500000000000019
 40
0.2500000000000019
 40
0.3125000000000023
 40
0.3125000000000023
 40
0.3750000000000028
 40
0.3750000000000028
 40
0.406250000000003
 40
0.406250000000003
 40
0.421875000000003
 40
0.421875000000003
 40
0.437500000000003
 40
0.437500000000003
 40
0.500000000000003
 40
0.500000000000003
 40
0.562500000000003
 40
0.562500000000003
 40
0.5937500000000031
 40
0.5937500000000031
 40
0.6093750000000033
 40
0.6093750000000033
 40
0.6250000000000036
 40
0.6250000000000036
 40
0.6875000000000036
 40
0.6875000000000036
 40
0.7187500000000036
 40
0.7187500000000036
 40
0.7343750000000033
 40
0.7343750000000033
 40
0.7500000000000031
 40
0.7500000000000031
 40
0.8125000000000028
 40
0.8125000000000028
 40
0.8437500000000024
 40
0.8593750000000023
 40
0.8593750000000023
 40
0.8750000000000022
 40
0.8750000000000022
 40
0.9375000000000012
 40
0.9375000000000012
 40
0.9687500000000007
 40
0.9687500000000007
 40
0.9843750000000006
 40
0.9843750000000006
 40
0.9921875000000002
 40
0.9921875000000002
 40
1.0
 40
1.0
 40
1.0
 40
1.0
 10
0.0000000000000013
 20
0.3751087299157951
 30
0.0
 10
-0.1848639384242106
 20
0.379646161623459
 30
0.0
 10
-0.3693968883734313
 20
0.389428763514265
 30
0.0
 10
-0.6457425084606238
 20
0.4112941058656867
 30
0.0
 10
-0.737839267724474
 20
0.4197945865480263
 30
0.0
 10
-0.9216092991234306
 20
0.4391357492376823
 30
0.0
 10
-1.013202574088903
 20
0.4499664768815782
 30
0.0
 10
-1.28712141724288
 20
0.4858824696060846
 30
0.0
 10
-1.468589354400165
 20
0.514378219925322
 30
0.0
 10
-1.829220976264003
 20
0.5805328906022081
 30
0.0
 10
-2.00838444726878
 20
0.6181926607737485
 30
0.0
 10
-2.364285255080601
 20
0.7031600503282963
 30
0.0
 10
-2.541023146968445
 20
0.7504654623578089
 30
0.0
 10
-2.891840778066363
 20
0.8556467883454164
 30
0.0
 10
-3.065921985276744
 20
0.9135168646027141
 30
0.0
 10
-3.324771525592837
 20
1.009357968492919
 30
0.0
 10
-3.410674773775029
 20
1.042815853556916
 30
0.0
 10
-3.538911130520156
 20
1.095462291407035
 30
0.0
 10
-3.581553389192316
 20
1.113421467170117
 30
0.0
 10
-3.666621966480025
 20
1.150198533398407
 30
0.0
 10
-3.709048232231477
 20
1.169017721492306
 30
0.0
 10
-3.919763066564796
 20
1.264966158570349
 30
0.0
 10
-4.084493857280894
 20
1.347909573478671
 30
0.0
 10
-4.405082222360766
 20
1.528083509843137
 30
0.0
 10
-4.560949030746504
 20
1.625299163245747
 30
0.0
 10
-4.786759727894792
 20
1.783986869092159
 30
0.0
 10
-4.86069290572441
 20
1.839035613945098
 30
0.0
 10
-4.969353879493072
 20
1.925213497806692
 30
0.0
 10
-5.005200538714272
 20
1.954541112059279
 30
0.0
 10
-5.076100280237609
 20
2.014474109250156
 30
0.0
 10
-5.111209316907718
 20
2.04513067721131
 30
0.0
 10
-5.283906528900492
 20
2.201148040309383
 30
0.0
 10
-5.412511636375542
 20
2.334180735062358
 30
0.0
 10
-5.588718599942072
 20
2.548098522101708
 30
0.0
 10
-5.644662491933932
 20
2.62180639410531
 30
0.0
 10
-5.72400621646584
 20
2.736301901967986
 30
0.0
 10
-5.749695272770644
 20
2.775129391097597
 30
0.0
 10
-5.799459501223287
 20
2.854134901572227
 30
0.0
 10
-5.823348751627746
 20
2.894017747703185
 30
0.0
 10
-5.937825240561646
 20
3.09533451690542
 30
0.0
 10
-6.013504150144135
 20
3.262475687987342
 30
0.0
 10
-6.103032370335427
 20
3.522371418424291
 30
0.0
 10
-6.141798756583375
 20
3.654615348991206
 30
0.0
 10
-6.171545833002794
 20
3.790312076867553
 30
0.0
 10
-6.189370783810362
 20
3.881544670568608
 30
0.0
 10
-6.197293436686657
 20
3.92765896981902
 30
0.0
 10
-6.231577003859624
 20
4.157843627956662
 30
0.0
 10
-6.24233952427426
 20
4.341934567249099
 30
0.0
 10
-6.237678413636884
 20
4.618000079148803
 30
0.0
 10
-6.232643136479414
 20
4.710010052254996
 30
0.0
 10
-6.220283067426887
 20
4.848008630529181
 30
0.0
 10
-6.215361192591711
 20
4.894005424141996
 30
0.0
 10
-6.206822018994592
 20
4.962996674016948
 30
0.0
 10
-6.20378286523839
 20
4.985993100429679
 30
0.0
 10
-6.197326357608174
 20
5.031984664458762
 30
0.0
 10
-6.193866357965438
 20
5.054979656750699
 30
0.0
 10
-6.19031818432952
 20
5.07797434857122
 30
0.0
  0
SPLINE
  5
7E
330
1F
100
AcDbEntity
  8
0
  6
Continuous
 62
     7
370
    25
100
AcDbSpline
210
0.0
220
0.0
230
1.0
 70
     8
 71
     3
 72
    38
 73
    34
 74
     0
 42
0.000000001
 43
0.00000001
 40
0.0
 40
0.0
 40
0.0
 40
0.0
 40
0.0625000000000053
 40
0.0625000000000053
 40
0.0937500000000068
 40
0.0937500000000068
 40
0.1250000000000081
 40
0.1250000000000081
 40
0.2500000000000114
 40
0.2500000000000114
 40
0.2812500000000107
 40
0.2812500000000107
 40
0.3125000000000098
 40
0.3125000000000098
 40
0.375000000000008
 40
0.375000000000008
 40
0.4375000000000063
 40
0.4375000000000063
 40
0.5000000000000046
 40
0.5000000000000046
 40
0.5625000000000029
 40
0.5625000000000029
 40
0.5937500000000027
 40
0.5937500000000027
 40
0.6250000000000023
 40
0.6250000000000023
 40
0.6875000000000018
 40
0.6875000000000018
 40
0.7500000000000013
 40
0.7500000000000013
 40
0.8750000000000007
 40
0.8750000000000007
 40
1.0
 40
1.0
 40
1.0
 40
1.0
 10
-3.834802896535548
 20
28.96962941046845
 30
0.0
 10
-3.822488527045981
 20
29.07765522703783
 30
0.0
 10
-3.805728668424355
 20
29.18487131452379
 30
0.0
 10
-3.772798702420707
 20
29.34427649419003
 30
0.0
 10
-3.760514378206232
 20
29.39719887093408
 30
0.0
 10
-3.733140663572636
 20
29.50242723182222
 30
0.0
 10
-3.718118858483114
 20
29.55447538810765
 30
0.0
 10
-3.635978159599563
 20
29.81173470679729
 30
0.0
 10
-3.547879481538994
 20
30.00805034161486
 30
0.0
 10
-3.402906111629584
 20
30.23866831112095
 30
0.0
 10
-3.37247101993344
 20
30.28355042804433
 30
0.0
 10
-3.308941467663478
 20
30.37062952631502
 30
0.0
 10
-3.275820515098791
 20
30.41286881629374
 30
0.0
 10
-3.172483720668855
 20
30.53577660110642
 30
0.0
 10
-3.09829293912503
 20
30.61263404923261
 30
0.0
 10
-2.939851546271984
 20
30.75670389820808
 30
0.0
 10
-2.855535524362368
 20
30.82396444906659
 30
0.0
 10
-2.677671219823456
 20
30.94918404427289
 30
0.0
 10
-2.585823300670395
 20
31.00598677117069
 30
0.0
 10
-2.397215598175826
 20
31.10980970675572
 30
0.0
 10
-2.300453442549506
 20
31.15682519077671
 30
0.0
 10
-2.152150513902845
 20
31.22105553599551
 30
0.0
 10
-2.102188128608355
 20
31.24141393009179
 30
0.0
 10
-2.001279899669989
 20
31.28017205272762
 30
0.0
 10
-1.950248888654526
 20
31.29860009146878
 30
0.0
 10
-1.796408046608698
 20
31.35092730506108
 30
0.0
 10
-1.693181289009042
 20
31.38179061051181
 30
0.0
 10
-1.485623088677058
 20
31.43684877297018
 30
0.0
 10
-1.381290817679005
 20
31.46103863014243
 30
0.0
 10
-1.066887349118731
 20
31.52511690413982
 30
0.0
 10
-0.8554216364801697
 20
31.55658730970288
 30
0.0
 10
-0.4296806442027188
 20
31.60256812731903
 30
0.0
 10
-0.2153985671832578
 20
31.61703750687728
 30
0.0
 10
0.0000000000619627
 20
31.62476717637362
 30
0.0
  0
LINE
  5
7F
330
1F
100
AcDbEntity
  8
0
  6
Continuous
 62
     7
370
    25
100
AcDbLine
 10
-4.2077197179
 20
29.0092000038
 30
0.0
 11
-6.5625
 21
5.125
 31
0.0
  0
LINE
  5
80
330
1F
100
AcDbEntity
  8
0
  6
Continuous
 62
     7
370
    25
100
AcDbLine
 10
6.5625
 20
5.125
 30
0.0
 11
4.2077197179
 21
29.0092000038
 31
0.0
  0
LINE
  5
81
330
1F
100
AcDbEntity
  8
0
  6
Continuous
 62
     7
370
    25
100
AcDbLine
 10
6.1903181843
 20
5.0779743486
 30
0.0
 11
3.8348028965
 21
28.9696294103
 31
0.0
  0
LINE
  5
82
330
1F
100
AcDbEntity
  8
0
  6
Continuous
 62
     7
370
    25
100
AcDbLine
 10
-3.8348028965
 20
28.9696294105
 30
0.0
 11
-6.1903181843
 21
5.0779743486
 31
0.0
  0
MTEXT
  5
84
330
1F
100
AcDbEntity
  8
0
  6
Continuous
 62
     7
100
AcDbMText
 10
-6.6147429312
 20
-0.0401404091
 30
0.0
 40
0.1903
 41
0.0
 71
     1
 72
     1
  1
SOLIDWORKS Educational Product.
  7
SLDTEXTSTYLE0
 73
     1
 44
1.0
  0
MTEXT
  5
85
330
1F
100
AcDbEntity
  8
0
  6
Continuous
 62
     7
100
AcDbMText
 10
-6.6147429312
 20
-0.3255904091
 30
0.0
 40
0.1903
 41
0.0
 71
     1
 72
     1
  1
For Instructional Use Only.
  7
SLDTEXTSTYLE0
 73
     1
 44
1.0
  0
ENDSEC
  0
SECTION
  2
OBJECTS
  0
DICTIONARY
  5
C
330
0
100
AcDbDictionary
281
     1
  3
ACAD_GROUP
350
D
  3
ACAD_LAYOUT
350
1A
  3
ACAD_MLINESTYLE
350
17
  3
ACAD_PLOTSETTINGS
350
19
  3
ACAD_PLOTSTYLENAME
350
E
  3
ACAD_SCALELIST
350
47
  0
DICTIONARY
  5
D
102
{ACAD_REACTORS
330
C
102
}
330
C
100
AcDbDictionary
281
     1
  0
DICTIONARY
  5
1A
102
{ACAD_REACTORS
330
C
102
}
330
C
100
AcDbDictionary
281
     1
  3
Layout1
350
1E
  3
Layout2
350
26
  3
Model
350
22
  0
DICTIONARY
  5
17
102
{ACAD_REACTORS
330
C
102
}
330
C
100
AcDbDictionary
281
     1
  3
Standard
350
18
  0
DICTIONARY
  5
19
102
{ACAD_REACTORS
330
C
102
}
330
C
100
AcDbDictionary
281
     1
  0
ACDBDICTIONARYWDFLT
  5
E
102
{ACAD_REACTORS
330
C
102
}
330
C
100
AcDbDictionary
281
     1
  3
Normal
350
F
100
AcDbDictionaryWithDefault
340
F
  0
DICTIONARY
  5
47
102
{ACAD_REACTORS
330
C
102
}
330
C
100
AcDbDictionary
281
     1
  3
A0
350
48
  3
A1
350
49
  3
A2
350
4A
  3
A3
350
4B
  3
A4
350
4C
  3
A5
350
4D
  3
A6
350
4E
  3
A7
350
4F
  3
A8
350
50
  3
A9
350
51
  3
B0
350
52
  3
B1
350
53
  3
B2
350
54
  3
B3
350
55
  3
B4
350
56
  3
B5
350
57
  3
B6
350
58
  3
B7
350
59
  3
B8
350
5A
  3
B9
350
5B
  3
C0
350
5C
  3
C1
350
5D
  3
C2
350
5E
  3
C3
350
5F
  3
C4
350
60
  3
C5
350
61
  3
C6
350
62
  3
C7
350
63
  3
C8
350
64
  3
C9
350
65
  3
D0
350
66
  3
D1
350
67
  3
D2
350
68
  0
LAYOUT
  5
1E
102
{ACAD_REACTORS
330
1A
102
}
330
1A
100
AcDbPlotSettings
  1

  2
none_device
  4

  6

 40
0.0
 41
0.0
 42
0.0
 43
0.0
 44
0.0
 45
0.0
 46
0.0
 47
0.0
 48
0.0
 49
0.0
140
0.0
141
0.0
142
1.0
143
1.0
 70
   688
 72
     0
 73
     0
 74
     5
  7

 75
    16
147
1.0
148
0.0
149
0.0
100
AcDbLayout
  1
Layout1
 70
     1
 71
     1
 10
0.0
 20
0.0
 11
12.0
 21
9.0
 12
0.0
 22
0.0
 32
0.0
 14
1.0000000000E+20
 24
1.0000000000E+20
 34
1.0000000000E+20
 15
-1.0000000000E+20
 25
-1.0000000000E+20
 35
-1.0000000000E+20
146
0.0
 13
0.0
 23
0.0
 33
0.0
 16
1.0
 26
0.0
 36
0.0
 17
0.0
 27
1.0
 37
0.0
 76
     0
330
1B
  0
LAYOUT
  5
26
102
{ACAD_REACTORS
330
1A
102
}
330
1A
100
AcDbPlotSettings
  1

  2
none_device
  4

  6

 40
0.0
 41
0.0
 42
0.0
 43
0.0
 44
0.0
 45
0.0
 46
0.0
 47
0.0
 48
0.0
 49
0.0
140
0.0
141
0.0
142
1.0
143
1.0
 70
   688
 72
     0
 73
     0
 74
     5
  7

 75
    16
147
1.0
148
0.0
149
0.0
100
AcDbLayout
  1
Layout2
 70
     1
 71
     2
 10
0.0
 20
0.0
 11
0.0
 21
0.0
 12
0.0
 22
0.0
 32
0.0
 14
0.0
 24
0.0
 34
0.0
 15
0.0
 25
0.0
 35
0.0
146
0.0
 13
0.0
 23
0.0
 33
0.0
 16
1.0
 26
0.0
 36
0.0
 17
0.0
 27
1.0
 37
0.0
 76
     0
330
23
  0
LAYOUT
  5
22
102
{ACAD_REACTORS
330
1A
102
}
330
1A
100
AcDbPlotSettings
  1

  2
none_device
  4
ANSI_A_(11.00_x_8.50_Inches)
  6

 40
6.35
 41
19.05
 42
6.35000508
 43
19.05000254
 44
279.4
 45
215.9
 46
133.34999746
 47
-17.97050127
 48
0.0
 49
0.0
140
0.0
141
0.0
142
0.26296875
143
1.0
 70
  1696
 72
     0
 73
     0
 74
     0
  7

 75
     0
147
0.5913241897
148
-39.4088153714
149
0.0
100
AcDbLayout
  1
Model
 70
     1
 71
     0
 10
0.0
 20
0.0
 11
12.0
 21
9.0
 12
0.0
 22
0.0
 32
0.0
 14
-6.6147429312
 24
0.0
 34
0.0
 15
6.6147429312
 25
32.0
 35
0.0
146
0.0
 13
0.0
 23
0.0
 33
0.0
 16
1.0
 26
0.0
 36
0.0
 17
0.0
 27
1.0
 37
0.0
 76
     0
330
1F
331
29
  0
MLINESTYLE
  5
18
102
{ACAD_REACTORS
330
17
102
}
330
17
100
AcDbMlineStyle
  2
Standard
 70
     0
  3

 62
   256
 51
90.0
 52
90.0
 71
     2
 49
0.5
 62
   256
  6
BYLAYER
 49
-0.5
 62
   256
  6
BYLAYER
  0
ACDBPLACEHOLDER
  5
F
102
{ACAD_REACTORS
330
E
102
}
330
E
  0
SCALE
  5
48
102
{ACAD_REACTORS
330
47
102
}
330
47
100
AcDbScale
 70
     0
300
1:1
140
1.0
141
1.0
290
     1
  0
SCALE
  5
49
102
{ACAD_REACTORS
330
47
102
}
330
47
100
AcDbScale
 70
     0
300
1:2
140
1.0
141
2.0
290
     0
  0
SCALE
  5
4A
102
{ACAD_REACTORS
330
47
102
}
330
47
100
AcDbScale
 70
     0
300
1:4
140
1.0
141
4.0
290
     0
  0
SCALE
  5
4B
102
{ACAD_REACTORS
330
47
102
}
330
47
100
AcDbScale
 70
     0
300
1:5
140
1.0
141
5.0
290
     0
  0
SCALE
  5
4C
102
{ACAD_REACTORS
330
47
102
}
330
47
100
AcDbScale
 70
     0
300
1:8
140
1.0
141
8.0
290
     0
  0
SCALE
  5
4D
102
{ACAD_REACTORS
330
47
102
}
330
47
100
AcDbScale
 70
     0
300
1:10
140
1.0
141
10.0
290
     0
  0
SCALE
  5
4E
102
{ACAD_REACTORS
330
47
102
}
330
47
100
AcDbScale
 70
     0
300
1:16
140
1.0
141
16.0
290
     0
  0
SCALE
  5
4F
102
{ACAD_REACTORS
330
47
102
}
330
47
100
AcDbScale
 70
     0
300
1:20
140
1.0
141
20.0
290
     0
  0
SCALE
  5
50
102
{ACAD_REACTORS
330
47
102
}
330
47
100
AcDbScale
 70
     0
300
1:30
140
1.0
141
30.0
290
     0
  0
SCALE
  5
51
102
{ACAD_REACTORS
330
47
102
}
330
47
100
AcDbScale
 70
     0
300
1:40
140
1.0
141
40.0
290
     0
  0
SCALE
  5
52
102
{ACAD_REACTORS
330
47
102
}
330
47
100
AcDbScale
 70
     0
300
1:50
140
1.0
141
50.0
290
     0
  0
SCALE
  5
53
102
{ACAD_REACTORS
330
47
102
}
330
47
100
AcDbScale
 70
     0
300
1:100
140
1.0
141
100.0
290
     0
  0
SCALE
  5
54
102
{ACAD_REACTORS
330
47
102
}
330
47
100
AcDbScale
 70
     0
300
2:1
140
2.0
141
1.0
290
     0
  0
SCALE
  5
55
102
{ACAD_REACTORS
330
47
102
}
330
47
100
AcDbScale
 70
     0
300
4:1
140
4.0
141
1.0
290
     0
  0
SCALE
  5
56
102
{ACAD_REACTORS
330
47
102
}
330
47
100
AcDbScale
 70
     0
300
8:1
140
8.0
141
1.0
290
     0
  0
SCALE
  5
57
102
{ACAD_REACTORS
330
47
102
}
330
47
100
AcDbScale
 70
     0
300
10:1
140
10.0
141
1.0
290
     0
  0
SCALE
  5
58
102
{ACAD_REACTORS
330
47
102
}
330
47
100
AcDbScale
 70
     0
300
100:1
140
100.0
141
1.0
290
     0
  0
SCALE
  5
59
102
{ACAD_REACTORS
330
47
102
}
330
47
100
AcDbScale
 70
     0
300
1/128" = 1'-0"
140
0.0078125
141
12.0
290
     0
  0
SCALE
  5
5A
102
{ACAD_REACTORS
330
47
102
}
330
47
100
AcDbScale
 70
     0
300
1/64" = 1'-0"
140
0.015625
141
12.0
290
     0
  0
SCALE
  5
5B
102
{ACAD_REACTORS
330
47
102
}
330
47
100
AcDbScale
 70
     0
300
1/32" = 1'-0"
140
0.03125
141
12.0
290
     0
  0
SCALE
  5
5C
102
{ACAD_REACTORS
330
47
102
}
330
47
100
AcDbScale
 70
     0
300
1/16" = 1'-0"
140
0.0625
141
12.0
290
     0
  0
SCALE
  5
5D
102
{ACAD_REACTORS
330
47
102
}
330
47
100
AcDbScale
 70
     0
300
3/32" = 1'-0"
140
0.09375
141
12.0
290
     0
  0
SCALE
  5
5E
102
{ACAD_REACTORS
330
47
102
}
330
47
100
AcDbScale
 70
     0
300
1/8" = 1'-0"
140
0.125
141
12.0
290
     0
  0
SCALE
  5
5F
102
{ACAD_REACTORS
330
47
102
}
330
47
100
AcDbScale
 70
     0
300
3/16" = 1'-0"
140
0.1875
141
12.0
290
     0
  0
SCALE
  5
60
102
{ACAD_REACTORS
330
47
102
}
330
47
100
AcDbScale
 70
     0
300
1/4" = 1'-0"
140
0.25
141
12.0
290
     0
  0
SCALE
  5
61
102
{ACAD_REACTORS
330
47
102
}
330
47
100
AcDbScale
 70
     0
300
3/8" = 1'-0"
140
0.375
141
12.0
290
     0
  0
SCALE
  5
62
102
{ACAD_REACTORS
330
47
102
}
330
47
100
AcDbScale
 70
     0
300
1/2" = 1'-0"
140
0.5
141
12.0
290
     0
  0
SCALE
  5
63
102
{ACAD_REACTORS
330
47
102
}
330
47
100
AcDbScale
 70
     0
300
3/4" = 1'-0"
140
0.75
141
12.0
290
     0
  0
SCALE
  5
64
102
{ACAD_REACTORS
330
47
102
}
330
47
100
AcDbScale
 70
     0
300
1" = 1'-0"
140
1.0
141
12.0
290
     0
  0
SCALE
  5
65
102
{ACAD_REACTORS
330
47
102
}
330
47
100
AcDbScale
 70
     0
300
1-1/2" = 1'-0"
140
1.5
141
12.0
290
     0
  0
SCALE
  5
66
102
{ACAD_REACTORS
330
47
102
}
330
47
100
AcDbScale
 70
     0
300
3" = 1'-0"
140
3.0
141
12.0
290
     0
  0
SCALE
  5
67
102
{ACAD_REACTORS
330
47
102
}
330
47
100
AcDbScale
 70
     0
300
6" = 1'-0"
140
6.0
141
12.0
290
     0
  0
SCALE
  5
68
102
{ACAD_REACTORS
330
47
102
}
330
47
100
AcDbScale
 70
     0
300
1'-0" = 1'-0"
140
12.0
141
12.0
290
     0
  0
ENDSEC
  0
EOF
